<?xml version="1.0" encoding="UTF-8" standalone="no"?>
<!-- Created with Inkscape (http://www.inkscape.org/) -->

<svg
   xmlns:dc="http://purl.org/dc/elements/1.1/"
   xmlns:cc="http://creativecommons.org/ns#"
   xmlns:rdf="http://www.w3.org/1999/02/22-rdf-syntax-ns#"
   xmlns:svg="http://www.w3.org/2000/svg"
   xmlns="http://www.w3.org/2000/svg"
   xmlns:sodipodi="http://sodipodi.sourceforge.net/DTD/sodipodi-0.dtd"
   xmlns:inkscape="http://www.inkscape.org/namespaces/inkscape"
   id="svg2"
   version="1.1"
   inkscape:version="0.91 r13725"
   xml:space="preserve"
   width="293.96817"
   height="163.59946"
   viewBox="0 0 293.96817 163.59946"
   sodipodi:docname="angel-wings.svg"><metadata
     id="metadata8"><rdf:RDF><cc:Work
         rdf:about=""><dc:format>image/svg+xml</dc:format><dc:type
           rdf:resource="http://purl.org/dc/dcmitype/StillImage" /><dc:title></dc:title></cc:Work></rdf:RDF></metadata><defs
     id="defs6" /><sodipodi:namedview
     pagecolor="#ffffff"
     bordercolor="#666666"
     borderopacity="1"
     objecttolerance="10"
     gridtolerance="10"
     guidetolerance="10"
     inkscape:pageopacity="0"
     inkscape:pageshadow="2"
     inkscape:window-width="855"
     inkscape:window-height="672"
     id="namedview4"
     showgrid="false"
     inkscape:zoom="1"
     inkscape:cx="174.55371"
     inkscape:cy="64.851833"
     inkscape:window-x="200"
     inkscape:window-y="133"
     inkscape:window-maximized="0"
     inkscape:current-layer="g12"
     fit-margin-top="0"
     fit-margin-left="0"
     fit-margin-right="0"
     fit-margin-bottom="0" /><g
     id="g10"
     inkscape:groupmode="layer"
     inkscape:label="ink_ext_XXXXXX"
     transform="matrix(1.25,0,0,-1.25,-2.8798755,556.57917)"><g
       id="g12"
       transform="scale(0.1,0.1)"><path
         d="m 378.42591,4174.8649 c -2.35,-4.05 3.25,-7.49 7.12,-4.68 38.94,28.18 33.86,81.47 7.7,108.62 -3.17,3.29 -9.32,-1.06 -6.64,-4.7 12.11,-16.4 17.64,-35.11 13.44,-56.06 -3.22,-16.01 -13.22,-28.73 -21.62,-43.18"
         style="fill:#211c1d;fill-opacity:1;fill-rule:nonzero;stroke:none"
         id="path56"
         inkscape:connector-curvature="0" /><path
         d="m 416.90591,4216.6149 c -5.69,-3.56 -0.57,-9.35 4.75,-7.84 22.67,6.47 45.46,25.23 46.29,46.97 1,26.28 -22.78,51.29 -45.01,64.16 -4.12,2.39 -9.26,-3.32 -5.3,-5.99 16.79,-11.33 31.19,-28.87 36.09,-47.96 6.44,-25.09 -16.07,-36.33 -36.82,-49.34"
         style="fill:#211c1d;fill-opacity:1;fill-rule:nonzero;stroke:none"
         id="path58"
         inkscape:connector-curvature="0" /><path
         d="m 2343.4859,4168.1452 c -10.91,-8.23 -24.72,-14.47 -37.16,-20.39 -99.02,-47.13 -210.74,-49.93 -313.85,-44.14 -45.33,2.55 -91.24,9.43 -137.44,6.06 -52.92,-3.87 -104.15,-8.33 -156.79,-7.11 -86.2,2.01 -173.89,6.63 -247.54,42 31.97,3.54 63.53,10.97 91.47,23.23 2.62,1.15 5.78,2.61 9.16,4.29 0.86,-1.02 2.15,-1.78 4.1,-1.89 72.55,-4.35 147.09,0.17 220.75,9.31 12.89,1.6 25.75,3.13 38.61,4.67 99.37,-21.52 210.97,-21.34 315.64,-19.05 45.2,0.98 90.55,3.29 135.92,7.02 24.6,2.03 49.2,4.53 73.81,7.26 19.33,2.16 16.61,-1.23 3.32,-11.26 z m -269.87,-128.12 c 50.06,-5.9 100.11,-11.81 150.17,-17.72 11.47,-1.35 71.52,-3.23 71.24,-12.64 -0.36,-12.13 -61.12,-28.8 -71.23,-31.45 -95.51,-24.94 -190.58,-13.87 -280.17,5.22 -38.83,8.27 -76.27,13.18 -117.48,11.62 -44.99,-1.7 -89.48,-1.23 -133.61,2.59 -86.67,7.5 -170.46,25.66 -249.52,52.81 -2.43,31.36 -68.53,83.71 -81.6,92.87 -1.19,0.84 -2.48,1.57 -3.68,2.4 22.8,-3.26 47.09,-4.35 71.65,-3.03 0.29,-1 0.88,-1.94 2.16,-2.66 88.64,-49.37 206.56,-49.42 313.52,-48.72 11.49,0.07 22.97,0.48 34.45,0.98 85.97,-38.87 197.17,-40.83 294.1,-52.27 z m -140.15,-115.52 c 63.36,-17.84 127.8,-33.27 192.84,-47.18 -36.06,-31.69 -98.72,-28.75 -141.31,-24.11 -48.41,5.28 -97.25,15.51 -142.82,28.49 -34.73,9.88 -66.63,23.37 -102.7,30.48 -36.12,7.14 -73.11,11.18 -109.73,16.75 -82,12.46 -162.58,28.8 -240.64,51.35 -64.61,18.66 -129.6,40.71 -185.64,73.59 3.98,-0.83 7.94,-1.77 11.92,-2.53 38.08,-7.27 77.1,-11.71 116.35,-14.95 20.4,-1.69 40.88,-3.04 61.32,-4.51 10.94,-0.79 26.87,-5.19 38.1,-0.09 4.02,1.83 6.59,4.23 8.55,6.85 96.28,-32.55 198.54,-50.56 305.07,-53.85 1.57,-0.05 3.13,-0.07 4.69,-0.11 57.89,-25.31 122.07,-42.74 184,-60.18 z m -248.64,-74.26 c 32.52,-14.58 65.47,-28.51 99.02,-41.44 28.26,-10.9 61.87,-18.34 88.65,-32.17 -108.72,-64.33 -249.11,-5.35 -345.53,30.05 -102.35,37.57 -195.51,87.3 -290.65,135.41 34.26,18.97 -47.21,74.2 -59.66,83.36 -27.99,20.62 -57.05,42.13 -87.51,61.85 26.18,-9.87 53.11,-18.44 80.41,-25.5 93.46,-65.82 214.9,-98.99 336.91,-122.56 57.81,-31.93 117.29,-61.61 178.36,-89 z m -216.63,-65.83 c 20.89,-10.96 41.98,-21.66 63.26,-32.07 21.77,-10.64 53.24,-19.41 70.6,-34.64 37.21,-32.67 -32.39,-38.82 -56.59,-38.29 -27.08,0.59 -53.39,5.12 -78.74,11.43 -96.89,24.1 -186.44,70.75 -269.71,116.79 -83.81,46.34 -157.15,102.71 -235.44993,155.04 -7.56,16.11 -21.6,32 -27.69,41.56 -7.86,12.35 -16.25,24.43 -24.94,36.32 48.24,-29.49 97.33003,-58.4 152.44993,-78.13 27.12,-9.71 55.62,-17.11 85.18,-21.12 18.43,-2.5 48.44,-7.57 71.64,-4.48 4.24,-2.49 8.59,-4.88 12.86,-7.34 68.09,-58.04 156.04,-102.53 237.13,-145.07 z m -132.96,-93.86 c 16.93,-10.14 34.32,-19.68 52.51,-28.14 3.09,-1.44 11.37,-3.53 13.35,-5.97 25.47,-31.38 -18.46,-29.84 -29,-29.84 -9.89,0.01 -19.76,0.41 -29.53,1.15 -82.83,6.27 -157.62,40.09 -224.35,77.41 -67.56,37.78 -129.86993,82.22 -187.76993,130.47 -51.09,42.58 -94.39,90.5 -141.83,135.88 -2.46,15.72 -6.07,31.37 -10.33,46.56 21.32,-28.81 48,-55.35 79.38,-74.92 21.19,-13.23 64.46,-39.28 93.94,-22.63 9.54,5.4 13.82,12.24 14.76,19.76 78.89993,-66.24 171.04993,-121.64 258.50993,-178.87 36.51,-23.89 72.69,-48.31 110.36,-70.86 z m -196.42,-48.45 c 14.45,-10.84 29.1,-21.49 43.94,-31.94 5.02,-3.54 15.91,-7.85 18.71,-13.2 15.89,-30.308 -14.64,-28.789 -30.22,-28.371 -35.55,0.95 -68.08,14.332 -97.01,29.331 -126.03993,65.31 -210.93993,167.75 -296.60993,269.39 13.62,18.16 14.3,49.43 14.28,65.63 -0.01,5.67 -0.31,11.37 -0.75,17.08 20.44,-26.56 46.06,-50.47 70.55,-73.39 33.29,-31.17 68.55,-60.62 105.43,-88.46 8.7,-6.57 17.49,-13.06 26.36,-19.48 41.00993,-47.22 94.59993,-88.52 145.31993,-126.59 z m -241.68993,36.99 c 23.04,-29.78 46.46,-59.31 70.24,-88.598 5.77,-7.102 15.44,-15.852 19.54,-23.903 2.18,-2.648 4.37,-5.3 6.55,-7.949 -1.85,-12.531 -7.58,-16.711 -17.18,-12.558 -18.51,-1.282 -41.47,14 -54.98,22.687 -60.83,39.151 -103.98,102.931 -144.54,158.291 -45.46,62.02 -84.91,127.57 -122.11,194.27 -1.91,13.46 -4.42,26.8 -7.56,39.94 10.07,-20.99 21.29,-41.7 33.67,-60.87 13.49,-20.88 42.94,-53.84 77.19,-46.18 3.68,0.82 6.9,2.24 9.83,4.03 2.91,-3.82 5.87,-7.61 8.82,-11.41 34.97,-58.67 78.59,-113.54 120.53,-167.75 z m -128.92,-2.1 c 14.41,-25.41 29.3,-50.55 44.66,-75.44 6.7,-10.851 25.21,-30.281 26.93,-42.8 1.74,-12.622 -9.05,-23.809 -25.07,-19.54 -6.61,1.77 -13.17,4.418 -18.92,7.579 -25.98,14.281 -43.71,39.171 -61.61,60.531 -20.23,24.14 -39.89,48.67 -59.03,73.55 -37.59,48.87 -71.82,99.62 -106.78,150.09 0.91,17.12 -4.7,40.33 -11.71,62.04 2.25,-4.23 4.35,-8.56 6.74,-12.7 11.51,-19.94 30.72,-44.32 59.83,-44.26 29.13,0.06 36.54,20.91 35.64,42.11 -0.19,4.57 -0.74,9.15 -1.07,13.72 7.98,-15.76 16.42,-31.29 25.15,-46.67 23.56,-58.23 54.18,-113.44 85.24,-168.21 z m -34.14,-124.869 c 3.66,-5.489 16.18,-19.18 16.94,-25.649 3.35,-28.73 -38.77,-13.422 -46.51,-10.191 -45.18,18.808 -74.6,65.25 -102.17,100.019 -29.18,36.8 -53.48,78.51 -85.53,113.19 1.27,24.86 -7.18,50.62 -13.61,72.18 -3.86,12.93 -8.16,26.17 -13.15,39.23 14.54,-15.1 37.51,-37.48 59.11,-35.58 7.72,0.68 12.75,4.45 15.75,10.37 21.16,-34.95 42.44,-66.59 65.11,-97.65 17.4,-34.14 39.48,-66.49 60.1,-98.68 14.43,-22.54 29.1,-44.939 43.96,-67.239 z m -73.45,-69.102 c -4.63,-1.469 -9.45,0.02 -14.18,0.031 -24.18,2.352 -43.09,16.231 -58,31.289 -49.67,50.153 -82.05,111.031 -122.49,166.921 18.63,-6.15 36.26,1.99 44.55,20.42 1.6,3.54 2.73,7.17 3.71,10.82 23.13,-44.19 58.24,-85.24 91.2,-123.989 13.29,-20.429 27.77,-40.23 41.94,-60.051 5,-6.988 12.01,-16.699 17.19,-23.738 6.28,-8.543 9.56,-17.422 -3.92,-21.703 z m -51.55,-34.859 c 0.47,-17.461 -22.59,-14.461 -30.65,-11.18 -7.05,2.879 -16.71,6.852 -23.17,10.219 -15.55,8.09 -29.67,18.09 -42.17,29.472 -42.13,38.368 -73.78,85.301 -107.15,130.049 18.79,-7.32 43.6,14.02 46.86,34.98 2.01,12.97 0.81,26.68 -1.49,40.24 20.61,-45.39 53.22,-87.421 83.46,-126.819 5.93,-7.719 11.99,-16.012 18.4,-24.27 0.04,-0.301 -0.13,-0.551 0.04,-0.859 7.53,-13.082 15.69,-25.77 24.34,-38.223 6.93,-9.969 30.85,-31.738 31.53,-43.609 z m -94.1,-25.36 c 6.63,-10.851 23.97,-29.07 25.52,-41.91 3.48,-28.762 -32.09,-8.512 -43.75,-0.859 -26.62,17.441 -49.84,39.328 -70.14,62.418 -17.28,19.66 -30.14,41.812 -45.17,62.703 2.17,0.047 4.48,0.34 7.08,1.148 16.69,5.2 20.63,21.75 21.41,34.641 0.69,11.469 0.38,23.008 -0.48,34.488 18.13,-26.539 40.12,-51.39 60.52,-75.508 1.45,-1.722 2.95,-3.39 4.43,-5.082 12.26,-24.668 26.16,-48.468 40.58,-72.039 z m -25.51,-111.57 c 2.46,-11.121 7.41,-18.93 -0.63,-29.918 -9.31,-12.73 -16.3,-2.641 -27.39,4.508 -22.13,14.289 -37.92,39.262 -53.58,58.941 -14.46,18.168 -27.69,37.16 -42.57,55.028 0.59,0.742 1.06,1.601 1.22,2.691 0.41,2.93 0.39,5.801 0.43,8.672 19.64,6.5 18.41,39.297 17.02,53.277 -0.23,2.281 -0.64,4.52 -0.94,6.781 15.59,-23.929 36.35,-45.769 56.62,-64.718 13.03,-20.172 25.51,-40.692 36.37,-61.973 5.49,-10.75 10.82,-21.418 13.45,-33.289 z m -60.24,-59.02 c 2.62,-4.699 8.38,-11.609 9.62,-16.769 7.8,-7.922 3.75,-15.379 -12.16,-22.379 -3.39,1.547 -6.79,3.109 -10.18,4.66 -64.01,32.906 -96.07,86.27 -128.64,142.477 2.36,1.851 4.45,3.98 6.15,6.422 18.15,-5.711 44.39,-4.461 57.35,10.23 2.68,3.039 4.64,6.391 6.28,9.859 3.2,-5.339 6.29,-10.73 9.77,-15.929 12.06,-25.231 24.7,-50.11 38.07,-74.832 7.9,-14.59 15.66,-29.25 23.74,-43.739 z m -97.14,-22.199 c 10.42,-17.801 21.57,-35.191 33.36,-52.222 3.83,-5.508 7.72,-10.977 11.68,-16.418 -10.13,-3.981 -19.19,-3.77 -27.17,0.621 -10.88,2.617 -20.63,9.468 -29.48,15.039 -70.73,44.48 -94.37,119.738 -139.81,181.5 20.83,-12 44.51,-15.422 57.5,12.281 0.1,0.227 0.16,0.457 0.27,0.688 9.65,-9.821 23.51,-18.84 37.37,-16.629 0.14,0.019 0.26,0.078 0.4,0.101 13.93,-44.082 32.43,-84.883 55.88,-124.961 z m -87.64,173.828 c 18.43,2.582 29.86,27.602 31.78,43.051 0.07,0.551 0.03,1.059 0.08,1.602 2.98,-11.41 5.16,-23.133 6.83,-34.422 0.98,-6.59 5.54,-26.59 0.02,-33.192 -6.31,-3.109 -12.63,-6.207 -18.94,-9.308 -5.95,2.531 -11.59,5.461 -16.93,8.789 -1.7,0.891 -3.29,1.793 -4.9,2.68 1.75,6.921 2.43,13.882 2.06,20.8 z m 30.21,69.321 c 3.57,15.152 -0.17,28.57 -8.04,40.41 9.31,10.152 8.28,23.121 4.91,35.109 1.43,9.473 1.45,18.86 0.32,28.063 0.2,-0.192 0.3,-0.422 0.57,-0.602 27.13,-18.18 65.16,-77.199 27.56,-105.461 -3.09,-2.328 -1.63,-7.25 2.59,-6.359 13.65,2.902 21.38,9.281 25.24,17.512 8.86,-17.243 15.63,-34.153 20.25,-52.18 0.41,-12.883 0.08,-26.832 -6.03,-38.602 -8.68,-16.73 -27.29,-18.019 -44.43,-17.89 1.84,4.14 3.1,8.492 3.75,12.582 4.92,30.82 -7.57,63.91 -26.69,87.418 z m -9.84,136.2 c 3.85,7.49 5.69,15.28 6.18,23.14 17.83,-17.27 35.75,-34.69 48.47,-55.52 15.35,-25.121 16.66,-49.898 15.55,-79.191 -0.09,-2.399 4.02,-2.508 5.06,-0.36 6.89,14.211 8.59,28.18 6.76,41.672 5.46,-12.242 10.26,-24.75 13.85,-37.769 4.69,-16.993 15.24,-52.153 4.67,-73.68 -4.97,22.789 -19.62,43.43 -32.56,62.226 -0.57,0.832 -1.44,1.172 -2.38,1.211 4,32.2 -33.5,81.551 -51.42,92.493 -3.04,1.859 -6.54,-0.043 -7.81,-2.551 -1.5,9.179 -4.12,18.149 -7.69,26.809 0.52,0.39 0.99,0.87 1.32,1.52 z m 111.75,71.1 c 19.11,12.88 26.24,36.15 26.73,57.74 8.88,8.5 14.72,18.38 18.07,28.95 1.85,-17.63 4,-35.2 6.55,-52.71 1.96,-13.41 4.06,-26.8 5.96,-40.22 0.99,-6.4 1.85,-12.82 2.58,-19.27 4.99,-18.3 -5.49,-28.09 -31.45,-29.39 -1.43,1.66 -3.21,2.21 -4.98,2.11 -5.54,18.62 -13.41,36.4 -23.46,52.79 z m -8.74,12.91 c -2.88,11.55 -7.13,22.56 -11.55,31.89 -14.17,29.94 -37.22,55.13 -68.47,71.26 18.3,16.17 17.23,37.22 7.79,57.44 1.48,0.35 2.91,1.14 3.8,2.51 2.14,3.31 3.8,6.58 5.18,9.83 52.66,-44.23 117.05,-106.13 67.48,-178.82 -1.34,2.01 -2.81,3.93 -4.23,5.89 z m -65.63,219.49 c 8.61,12.33 8.97,26.63 4.66,40.8 57.38,-47.02 128.39,-120.14 95.43,-198.04 -0.6,4.26 -1.41,8.3 -2.42,11.95 -12.68,45.39 -49.38,83.21 -92.45,107.26 3.17,13.34 0.43,25.99 -5.85,37.59 0.19,0.19 0.46,0.2 0.63,0.44 z m 14.75,90.94 c 13.61,3.13 17.72,14.16 16.82,28.07 42.24,-31.3 89.44,-64.77 101.37,-116.14 7.85,-33.81 9.08,-74.54 -10.95,-108.29 -1.68,12.91 -5.4,25.34 -10.03,35.93 -19.98,45.67 -56.67,92.78 -104.81,117.37 6.52,13.53 8.56,28.42 7.6,43.06 z m 21.27,43.79 c 5.32,16.35 7.15,33.53 5.83,50.28 7.5,6.23 12.73,13.5 15.87,21.52 55.59,-40.39 99.26,-90.16 73.34,-162 -21.51,33.83 -57.11,58.74 -93.97,81.11 -2.21,1.34 -4.66,0.49 -6.05,-1.09 -0.26,1.8 -0.58,3.63 -0.97,5.48 2.59,0.58 5.14,2.22 5.95,4.7 z m 117.14,-164.65 c 12.39,-33.8 27.34,-66.55 36.36,-101.81 4.14,-16.17 16.59,-51.87 5.31,-69.85 -21.89,-14.05 -36.67,-14.3 -44.35,-0.77 -2.48,4.1 -4.95,8.21 -7.42,12.32 -1.9,3.79 -3.39,7.72 -4.83,11.66 -4.09,18.98 -9.15,37.65 -15.33,55.99 0.03,1.19 0.05,2.38 0.04,3.57 27.65,19.46 32.35,57.2 30.22,88.89 z m 2.29,118.21 c 16.28,-11.12 37.48,-19.59 56.79,-14.77 4.03,-9.6 8.09,-19.23 12.17,-28.91 0.01,-0.05 -0.02,-0.07 0,-0.12 6.9,-26.18 15.17,-59.36 20.97,-85.85 3.56,-16.23 20.75,-59.79 -19.36,-43.54 -38.56,15.62 -63.73,62.93 -79.89,96.88 -2.5,8.31 -5.84,16.12 -9.81,23.53 0.93,0.47 1.81,1.12 2.51,2.16 11.43,17.08 16.32,34.11 16.62,50.62 z m 31.4,88.22 c -0.46,5.54 -1.78,11.04 -3.66,16.49 15.45,-5.85 34.48,-7.13 48.63,-0.06 1.65,-24.16 7.12,-48.67 2.75,-73.22 -1.56,-8.79 -5.59,-23.78 -15.49,-28.82 -10.73,-5.47 -25.59,-4.7 -35.34,-1.05 -10.19,3.81 -19.63,8.64 -29.2,13.33 -1.75,11.37 -5.7,22.35 -11.2,32.85 25.74,-10.64 45.25,19.95 43.51,40.48 z m 60.59,-67.72 c 17.24,-23.01 53.38,-49.64 81.98,-35.57 3.77,-22.15 7.05,-44.34 9.14,-66.87 1.18,-12.76 2.65,-25.53 3.3,-38.37 0.86,-17.13 0.37,-30.18 -15.91,-32.56 -15.37,-2.24 -22.31,5.17 -33.87,15.37 -20.19,17.83 -30.69,44.14 -42.86,67.01 -10.28,19.32 -20.77,38.47 -31.61,57.48 6.76,2.66 13.21,7.05 18.99,13.87 4.88,5.75 8.4,12.42 10.84,19.64 z m -9.47,157.55 c 20.09,-11.61 42.24,-22.43 68.85,-17.77 4.46,0.78 9.49,2.09 14.52,3.84 0.01,-0.31 -0.17,-0.59 -0.01,-0.91 17.5,-34.79 21.75,-73.16 20.76,-112.65 -0.18,-7.19 1.43,-25.84 -2.17,-32.4 -7.97,-12.64 -17.74,-22.05 -40.34,-21.79 -6.51,2.03 -12.52,4.75 -18.04,8.16 -12.59,7.25 -21.71,17.21 -31.32,27.01 4.94,26.7 -1.8,57.93 -10.07,78.89 4.69,4.38 8.36,10.17 10.29,17.81 4.59,18.1 -1.65,34.74 -12.47,49.81 z m -3.37,4.47 c -13.38,16.86 -31.99,31.64 -46.87,44.06 12.17,5.43 21.18,20.02 21.22,32.33 0.07,19.16 -13.44,36.66 -30.24,49.74 32.29,-10.75 61.38,-14.16 97.82,-0.92 13.95,5.07 39.93,21.33 33.3,34.24 17.17,-4.38 34.85,-7.37 51.75,-6.97 1.87,0.04 3.88,0.25 5.93,0.58 41.54,-22.64 87.21,-40.77 114.14,-78.55 11.64,-16.34 20.7,-35.12 -7.93,-47.74 -12.87,-5.67 -29.03,-3.66 -41.97,-2.34 -4.06,0.42 -8.09,0.96 -12.13,1.46 6.32,3.9 10.07,9.96 9.28,19.12 -1.69,19.48 -21.34,42.02 -34.47,55.61 -15.99,16.56 -35.88,30.43 -59.03,38.77 -1.62,0.58 -3.09,-1.63 -1.73,-2.51 28.99,-18.72 54.64,-39.13 70.74,-68.39 7.93,-14.41 16.94,-29.45 -7.51,-35.71 -5.41,-1.39 -11.44,-1.7 -17.65,-1.52 -7.29,0.9 -14.6,1.72 -21.99,2.26 -0.05,0.01 -0.09,-0.04 -0.14,-0.04 -5.79,0.85 -11.36,1.74 -16.34,2.32 -0.04,0 -0.07,-0.03 -0.11,-0.02 -7.89,10.39 -18.48,19.72 -25.37,26.35 -20.55,19.77 -44.04,36.83 -71.63,48.73 -3.76,1.62 -7.35,-3.92 -4.13,-5.97 29.06,-18.46 57.5,-37.06 79.49,-62.37 9.17,-10.56 16.02,-17.59 14.52,-31.99 2.23,-13.96 -6.93,-21.28 -27.5,-21.97 -6.05,-0.37 -12.1,-0.74 -18.15,-1.11 -17.65,0.92 -34.21,8.1 -49.63,14.17 -1.56,0.62 -3.01,-0.37 -3.67,-1.62 z m 271.78,32.47 c 1.51,-0.26 3.17,-0.48 4.91,-0.7 -0.11,-0.67 -0.07,-1.36 0.35,-1.96 16.55,-23.48 36.54,-44.87 54.61,-67.37 7.34,-9.14 19.31,-19.65 23.7,-30.35 3.06,-7.47 7.78,-13.07 -7.64,-17.56 -7.05,-2.04 -20.7,2.2 -26.85,3.7 -56.13,13.78 -88.54,55.08 -121.62,93.46 31.51,-2.74 62.03,0.54 72.54,20.78 z m 79.4,7.28 c 10.01,-1.62 21.55,-2.06 32.27,-0.85 10.24,-16.14 22.87,-30.85 35.93,-45.11 5.87,-6.39 11.84,-12.71 18.03,-18.85 1.96,-1.95 19.09,-15.59 18.99,-18.1 -0.8,-20.15 -74.7,-5.52 -100.77,-0.23 -20.86,26.32 -43.19,52.44 -69.36,74.28 21.2,-1.38 50.28,0.18 64.91,8.86 z m 61.59,10.22 c 0.26,-0.12 0.46,-0.28 0.79,-0.36 18.53,-4.44 37.57,-4.58 56.60003,-1.66 0.03,-0.03 0,-0.07 0.04,-0.1 10.22,-9.88 22.2999,-16.75 35.7599,-23.02 13.41,-6.24 39.64,-10.71 49.44,-20.49 19.61,-19.57 -48.15,-25.99 -60.14,-25.79 -18.6899,0.3 -35.19994,5.1 -52.08993,10.11 -17.15,17.14 -33.58,34.92 -51.21,51.62 8.67,1.84 16.09,4.99 20.81,9.69 z m -59.5,-168.98 c -5.72,6.86 -11.66,13.57 -17.87,20.07 8.65,-0.61 17.48,-0.38 26.52,1.19 31.91,5.54 17.59,23.81 5.99,38.73 -0.55,0.7 -1.1,1.41 -1.65,2.1 14.58,-4.95 30.06,-8.18 46.3,-8.66 13.17,-0.39 37.15,0.44 50.49999,9.31 2.39004,-1.27 4.82004,-2.51 7.24004,-3.76 40.1299,-30.63 85.4199,-56.73 126.5599,-86.29 22.4,-16.1 45.44,-32.03 65.96,-49.99 6.31,-5.52 27.26,-20.77 25.67,-30.39 -1.07,-6.49 -4.01,-4.83 -12.92,-5.51 -8.76,-0.66 -17.52,-0.88 -26.22,-0.76 -116.82,1.53 -203.98993,65.87 -296.07993,113.96 z m -116.68,-24.72 c 4.55,1.01 9.04,2.38 13.37,4.64 25.41,13.26 23.67,33.68 13.07,52.17 -6.23,10.86 -12.9,21.59 -19.76,32.23 22.72,-20.28 49.25,-36.75 78.44,-42.42 13.18,-20.23 27.56,-39.8 40.91,-59.94 7.74,-11.67 15.18,-23.54 22.66,-35.36 6.04,-9.56 27.23,-31.85 26.31,-42.58 -2.99,-34.88 -60.54,-6.87 -70.89,-1.37 -13.48,7.16 -25.76,15.88 -37.17,25.32 -24.74,20.45 -44.18,45.23 -66.94,67.31 z m -116.24,38.87 c -0.18,4.53 -0.5,8.99 -0.91,13.39 12.01,-15.3 28.15,-27.67 47.21,-37.31 16.5,-8.35 39,-17.76 60.74,-16.36 7.15,-39.44 33.58,-170.01 -21.56,-170.1 -37.38,-0.06 -60.24,50.23 -73.73,73.58 -9.57,16.58 -18.25,33.59 -29.16,49.4 2.18,1.83 4.31,3.89 6.34,6.34 17.52,21.07 11.96,59 11.07,81.06 z m -8.48,131.53 c 9.14,-2.66 22.01,-5.3 34.98,-6.3 11.38,-2.61 24.73,-5.27 38.55,-7.14 3.89,-5.77 8.18,-11.83 12.87,-18.09 8.88,-15.17 18.05,-30.19 27.28,-45.18 10.21,-16.55 52.16,-61.51 16.71,-80.74 -25.93,-14.07 -67.19,9.7 -85.72,21.98 -15.2,10.08 -28.1,22.85 -39.79,36.29 -3.87,20.2 -11.15,39.02 -24.11,56.38 10.75,4.65 20.44,11.64 23.02,21.27 1.93,7.17 -0.05,14.47 -3.79,21.53 z m 480.83993,11.21 c 7.37,0.17 16.94,-0.02 27.05,0.17 60.87,-22.43 122.63,-43.63 176.01,-77.29 26.26,-16.57 50.29,-35.62 70.11,-58.2 5.76,-6.56 24.43,-26.59 23.4,-37.06 -0.24,-0.57 -0.46,-1.14 -0.53,-1.73 -0.39,-1 -0.75,-2.01 -1.69,-2.72 -7.91,-5.98 -33.19,-0.43 -43.48,0.16 -67.39,3.83 -135.2,10.17 -198.9,26.21 -60.76,15.29 -114.58,43.2 -173.9699,60.89 -0.65,0.28 -1.29,0.58 -1.94,0.86 7.85,10.49 -2.97,19.25 -11.65003,26.32 14.25003,-4.09 29.91003,-5.56 45.16993,-5.07 19.86,0.65 53.05,3.92 68.65,19.17 12.7,12.41 5.36,17.96 -6.57,23.7 -26.68,12.82 -55.02,22.61 -81.6799,35.54 34.8799,-8.9 72.6799,-11.81 110.0199,-10.95 z m -77.15,22.62 c 0.64,0.25 1.05,0.66 1.54,1.01 35.91,-6.15 102.74,-9.86 76.12,37.18 -2.33,4.12 -4.97,8.04 -7.74,11.86 12.87,-4.84 26.05,-9.18 38.46,-14.82 7.8,-3.55 23.33,-9.3 29.46,-16.07 11.79,-4.98 11.58,-14 -0.62,-27.06 -6.59,-0.92 -13.19,-1.71 -19.79,-2.37 -46,-4.6 -89.01,-1.1 -132.6,4.89 5.08,1.63 10.15,3.38 15.17,5.38 z m 160.13,-9.45 c 6.52,5.45 8.56,10.96 7.39,16.38 50.43,-22.81 106.53,-35.34 167.07,-36.64 39.3,-0.85 94.33,-0.55 138.97,14.66 8.64,-3.46 17.56,-6.41 26.04,-10.2 18.82,-8.4 26.31,-11.18 9.41,-28.01 -19.97,-19.89 -57.06,-26.96 -83.74,-31.92 -46.08,-8.56 -90.76,-7.54 -135.38,-3.23 -49.31,30.32 -106.68,50.89 -164.91,67.24 13.74,1.52 26.74,4.7 35.15,11.72 z m 373.56,36.19 c 104.26,-10.92 214.56,-2.21 320.58,3.37 75.6,3.98 151.55,10.34 227.13,23.31 38.41,6.59 76.68,14.9 114.48,25.39 28.09,7.79 65.44,26.44 95.19,25.93 -23.27,-64.56 -123.69,-78.44 -185.48,-92.86 -65.37,-15.26 -131.06,-27.43 -197,-37.66 -65.13,-10.11 -130.38,-24.41 -195.46,-32.37 -66.57,-8.15 -132,-7.94 -197.31,-4.36 12.25,8.14 22.52,18.4 19.66,29 -3.27,12.1 -26.93,20.55 -46.17,24.75 18.12,8.28 33.54,19.8 44.38,35.5 z m 742.8,-77.47 c -59.76,-6.61 -119.52,-11.09 -179.1,-13.01 -96.98,-3.13 -190.72,5.23 -285.94,9.69 45.77,5.57 91.49,11.49 137.46,19.4 77.06,13.27 154.04,29.72 229.78,51.3 53.67,15.29 110.12,40.73 129.5,92.21 1.27,3.36 0.68,7.87 -3.6,8.84 -25.44,5.76 -49.06,-5.6 -74.28,-13.71 -38.47,-12.36 -77.67,-22.13 -117.06,-29.94 -75.26,-14.91 -151.14,-22.67 -226.69,-27.49 -113.85,-7.26 -234.73,-16.27 -349.19,-8.38 -1.04,1.35 -2.73,2.35 -4.67,2.68 -46.08,7.97 -91.92,14.68 -136.99,25.61 -42.02,10.19 -83.51,21.62 -125.79,31.19 -9.27,2.09 -18.65,4.12 -28.12,6.05 32.65,2.67 66.06,9.03 93.75,23.34 5.9,3.04 5.26,9.52 -0.82,10.65 -34.69,6.44 -65.11,18 -101.1,21.93 -39.18,4.28 -78.78,7.14 -118.18,10.54 -81.98,7.07 -163.5599,15.86 -245.41993,23.46 -138.4,12.84 -275.48,30.01 -417.23,-10.53 -62.94,-18.01 -127.84,-40.69 -185.06,-72.96 -51.3,-28.94 -83.78,-69.7 -99.78,-120.11 -19.05,-60 -24.9,-122.96 -36.17,-183.6 -12.69,-68.3 -26.97,-136.48 -41.48,-204.67 -13.1,-61.52 -25.15,-123.26 -40.12,-184.63 -14.509999,-59.49 -35.829999,-117.031 -77.739999,-168.601 -6.04,-7.438 4.9,-14.668 11.57,-7.578 41.31,43.941 62.440003,96.941 76.989999,149.989 18.11,66.01 29.94,133.05 42.73,199.45 23.68,122.89 39.18,247.22 67.8,369.75 7.43,31.84 18.58,64.44 42.24,91.48 23.22,26.53 56.33,45.71 88.8,61.4 63.35,30.6 131.42,57.32 199.94,72.24 69.96,15.23 136.52,11.29 204.94,6.26 70.38,-5.18 140.68,-10.64 211.15,-15.42 70.81993,-4.81 141.78993,-8.89 212.40993,-14.64 35.26,-2.86 70.74,-5.15 105.76,-9.02 25.39,-2.81 57.83,-5.79 80.84,-17.59 -18.9,-4 -37.68,-10.07 -56.7,-13.55 -21.8,-4 -43.89,-7.19 -65.81,-9.43 -53.52,7.95 -108.99,10.3 -164.02,-1.43 -4.38,-0.94 -3.84,-6.15 0.43,-5.89 91.19,5.64 175.3,-6.34 260,-26.98 70.08,-17.08 141.99,-41.52 216.54,-47.72 4.44,-0.62 8.92,-1.11 13.38,-1.65 -18.57,-35.58 -81.25,-40.47 -117.39,-43.36 -32.94,-2.64 -65.8,-1.92 -97.89,1.29 -54.03,5.41 -107.7,19.82 -155.95,40.42 -24.35,16.19 -67.6,29.38 -89.01,34.32 -31.85,35.71 -82.85,57.5 -131.40993,71.4 -2.19,0.62 -3.57,-2.2 -1.6,-3.06 39.84003,-17.5 80.12993,-33.78 110.56993,-62.76 13.01,-12.38 52.17,-47.73 9.42,-57.88 -13.36,-3.18 -29.85,0.12 -44.77,0.43 -0.04,0.07 -0.04,0.15 -0.09,0.21 -23.44,33.6 -48.4499,66.5 -88.00993,86.23 -34.46,17.2 -77.3,26.42 -118.73,25.91 -5.33,-0.06 -6.65,-6.4 -1.61,-7.29 41.83,-7.35 84.01,-11.92 119.75,-32.08 32.15999,-18.15 53.09003,-46.04 73.10993,-74.19 -28.8499,-10.21 -56.05993,-12.07 -85.92993,-10.33 1.47,5.62 0.27,12.53 -5.06,21.08 -26.42,42.33 -76.74,63.81 -124.53,83.84 -3.65,1.53 -7.59,-4.19 -4.08,-5.9 29.52,-14.35 58.77,-28.87 83.87,-48.64 8.32,-6.54 38.42,-30.5 36.81,-42.3 -2.01,-14.69 -28.15,-17.02 -45.47,-18.59 2.29,4.62 1.84,10.35 -2.57,17.45 -29.52,47.42 -92.46,72.79 -150.22,86.72 -3.07,0.75 -4.93,-2.98 -2.21,-4.23 35.98,-16.54 75.48,-28.9 106.44,-52.18 9.08,-6.83 17.97,-14.45 24.94,-23.08 3.94,-4.2 7,-8.9 9.2,-14.1 8.24,-8.85 3.24,-13.1 -15,-12.74 -18.53,-4.3 -36.87,-4.8 -55.4,-6.08 0.39,1.47 1,2.76 1.21,4.37 3.31,24.93 -27.16,52.45 -44.97,66.4 -25.26,19.77 -57.13,34.44 -89.33,45.22 11.17,3.82 20.7,11.57 15.36,22.47 -0.82,1.68 -3.3,1.46 -4.39,-0.22 -13.68,-21.02 -40.72,-12.36 -60.2,-9.17 -21.28,3.49 -42.33,7.6 -63.12,12.43 -4,0.92 -6.87,-4.27 -2.95,-5.65 11.58,-4.06 24.32,-8.48 37.55,-12.34 11.25,-25.58 -51.3,-37 -64.82,-37.64 -20.64,-0.97 -39.85,4.26 -58.75,9.23 -1.99,0.52 -3.66,-0.52 -4.42,-1.87 -6.7,4.36 -13.63,8.02 -20.24,10.77 -2.93,1.22 -5.51,-2.94 -3.16,-4.57 20.42,-14.11 89.71,-76.98 22.15,-88.72 -2.62,-0.46 -4.29,-3.93 -1.9,-5.2 4.84,-2.58 9.65,-3.24 14.22,-2.61 14.82,-18.26 32.98,-34.82 45.99,-54.1 10.99,-16.29 24.64,-51.88 -13.57,-60.77 -9.54,-2.22 -22.7,0.28 -33.21,2.4 -13.06,29.06 -42.36,55.79 -64.4,74.84 -2.31,2 -6.16,-1.72 -4.35,-3.89 19.78,-23.64 104.71,-111.98 31.52,-129.87 -0.88,-0.21 -1.47,-0.65 -1.92,-1.17 -17.93,31.34 -49.82,57.63 -80.85,73.96 8.69,37.53 -19.06,85.52 -44.68,103.63 -3.39,2.4 -9.04,-2.55 -6.07,-5.44 15.46,-15.05 25.23,-34.99 32.19,-54.85 7.13,-20.38 5.69,-36.56 -2.59,-54.72 -4.56,20.49 -13.94,39.62 -27.96,54.75 -3.63,3.92 -11.17,-1.37 -7.79,-5.51 25.03,-30.78 23.84,-65.84 21.3,-103.25 -7.27,20.25 -17.92,39.49 -21.63,46.03 -2.55,4.49 -11.27,1.17 -8.93,-3.63 6.18,-12.7 12.38,-25.5 16.97,-38.87 3.44,-9.98 12.64,-38.55 2.66,-51.51 -1.63,10.73 -4.59,21.07 -8.28,30.23 -2.32,5.75 -12.84,1.46 -10.52,-4.28 9.58,-23.79 6.75,-44.92 2.39,-68.99 -11.5,20.6 -30.64,38.97 -46.2,47.95 -3.94,2.28 -8.8,-3.14 -5.06,-5.71 27.42,-18.86 50.54,-56.21 46.48,-90 -13.57,17.94 -34.59,32.76 -52.6,42.76 -4.11,2.28 -9.28,-3.41 -5.24,-5.93 17.78,-11.05 34.64,-24.29 46.51,-40.61 13.69,-18.83 12.88,-35.53 7.73,-56.7 -13.56,23.14 -36.44,44.05 -51.87,53.62 -4.23,2.63 -9.64,-3.46 -5.54,-6.27 37.67,-25.74 66.1,-64.94 42.6,-108.99 -1.49,-0.66 -2.43,-2.31 -2.2,-3.78 -0.7,-1.17 -1.27,-2.32 -2.04,-3.49 -2.45,-3.73 2.92,-6 6.16,-4.06 0.94,0.56 1.57,1.2 2.45,1.78 52.37,-38.24 90.13,-94.63 73.5,-161.64 -0.55,-2.24 2.97,-3.52 4.56,-1.49 8.51,10.91 12.09,23.48 12.57,36.37 8.01,-20.76 14.27,-42.18 17.88,-64.4 2.36,-14.52 6.98,-33.571 4.18,-48.579 -2.19,-11.742 -3.64,-30 -24.17,-26.832 0.46,-0.078 -0.6,0.492 -2.13,1.242 -7.98,17.09 -18.47,33.039 -31.54,47.168 -0.26,0.281 -0.63,0.332 -0.98,0.43 -15.56,27.501 -42.13,51.571 -63.76,69.581 -1.57,14.59 -7.87,29.01 -17.17,41.89 1.86,0.5 3.54,1.76 3.96,3.75 2.2,10.29 2.94,20.66 2.48,30.93 43.68,-33.33 91.43,-83.41 84.63,-140.471 -0.44,-3.68 5.32,-5.309 7.2,-1.407 13.16,27.248 -3.62,56.398 -16.83,78.408 -17.8,29.66 -43.19,54.51 -74.98,72.45 -0.32,0.18 -0.64,0.24 -0.96,0.33 -0.2,1.8 -0.27,3.62 -0.55,5.41 1.69,-0.83 4.14,-0.7 5.74,0.95 14.71,15.19 10.1,38.54 6.43,55.15 -4.89,22.1 -15.34,41.54 -29.81,59.08 -3.53,4.28 -11.47,-1.38 -8.1,-5.74 22.94,-29.6 34.03,-65.51 24.58,-103.59 -4.56,23.49 -14.52,45.94 -27,65.25 -3.13,4.85 -11.47,-1.21 -8.48,-6.01 20.91,-33.62 24.59,-67.8 25.53,-106.67 -15.03,17.48 -35.25,31.07 -55.23,36.28 -4.8,1.25 -8.36,-5.39 -3.56,-6.82 45.29,-13.47 72.18,-59.45 69.09,-102.26 -11.09,20.95 -27.32,39.61 -45.29,54.23 -5.23,4.25 -12.78,-4.38 -7.62,-8.61 28.01,-22.98 41.31,-49.17 49.66,-79.338 -9.49,13.868 -22.24,25.468 -38.79,33.638 -5.41,2.67 -12.18,-4.81 -6.7,-7.58 29.41,-14.84 61.8,-55.62 51.65,-90.999 -15,17.41 -38.19,31.031 -57.38,41.258 -4.77,2.543 -10.8,-4.059 -6.03,-6.821 29.8,-17.238 56.17,-35.597 63.73,-65.089 -14.03,16.402 -34.95,29.453 -51.95,40.511 -2.55,1.66 -6.78,-1.898 -4.49,-4.011 13.48,-12.411 26.48,-25.45 37.88,-39.489 8.49,-10.449 17.47,-20.34 17.78,-34.621 0.24,-11.359 -4.93,-28.32 -17.67,-36.027 -6.52,29.297 -28.07,56.629 -48.53,74.207 -2.01,1.73 -5.65,-1.609 -3.86,-3.457 20.74,-21.461 32.02,-50.082 34.07,-79.621 0.47,-6.832 2.45,-19.469 -0.84,-26.309 -3.44,-7.133 -35.94,-10.762 -43.22,-8 -1.78,0.668 -3.41,1.738 -5.08,2.699 1.13,0.809 2.25,1.481 3.41,2.539 11.29,10.34 10.51,28.02 7.66,39.75 -4.76,19.59 -19.32,32.512 -32.69,47.18 -2.02,2.211 -6,-0.68 -4.32,-3.058 10.14,-14.332 31.73,-47.071 20.75,-66.653 -5.19,-9.25 -9.34,-3.847 -15.19,0.203 -4.13,2.86 -7.34,8.118 -10.31,11.879 -6.92,8.75 -12.81,18.188 -18.47,27.688 -1.43,2.383 -5.35,0.793 -4.69,-1.91 2.66,-10.829 14.44,-48.411 32.33,-59.129 34.64,-57.981 66.99,-122.438 115.32,-171.578 18.39,-18.68 93.15,-84.68 125.88,-49.68 2.27,2.418 2.14,5.687 0.49,7.93 -28.38,38.437 -53.11,78.98 -75.71,120.617 8.18,-9.567 16.81,-18.598 25.59,-26.809 15.69,-14.66 33.02,-27.879 51.76,-39.488 10.9,-6.762 24.63,-16.742 39.96,-14.531 41.53,5.988 12.17,51.039 3.87,65.949 -6.47,11.629 -12.95,23.23 -19.49,34.801 0.89,-1.032 1.77,-2.102 2.67,-3.129 12.33,-14.192 39.91,-46.43 66.71,-36.141 23.93,9.18 17.65,46.277 12.95,60.988 -5.19,16.243 -13.17,31.762 -22.68,46.512 16.01,-11.531 34.04,-20.469 53.51,-19.992 22.27,0.543 31.47,14.863 24.46,31.293 -8.68,20.359 -24.4,39.469 -36.51,58.109 -4.66,7.16 -9.56,14.168 -14.41,21.219 16.05,-13.68 33.93,-25.52 54.96,-34.391 18.34,-7.73 58.91,-19.328 63.75,12 2.02,13.051 -8.82,24.641 -15.96,34.032 -2.56,3.371 -5.19,6.699 -7.8,10.031 9.24,-5.543 19.35,-9.891 30.66,-12.281 20.87,-4.422 64.46,-2.039 54.73,26.839 -1.49,4.411 -3.76,8.782 -6.38,13.122 17.37,-11.102 36.92,-17.872 58.42,-14.633 52.3,7.902 11.79,56.703 0.71,73.39 -8.01,12.071 -15.81,24.383 -23.56,36.761 15.68,-19.46 31.98,-38.671 50.82,-55.151 16.38,-14.328 38.5,-29.36 64.27,-28.348 15.84,0.621 33.4,8.539 32.58,24.539 -0.68,13.289 -18.87,31.57 -25.64,42.32 -10.79,17.11 -21.34,34.35 -31.81,51.64 -18.16,30.01 -35.31,60.54 -52.36,91.13 9.95,-13.97 20.07,-27.83 30.5,-41.49 43.59,-57.1 92.76,-130.74 170.95,-154.651 15.24,-4.66 51.35003,-11.957 56.44003,11.243 3.03,13.82 -12.66,26.808 -20.28003,36.089 -15.23,18.559 -30.32,37.229 -45.25,55.999 -23.16,29.11 -45.35,59.01 -67.52,88.94 16.73,-16.86 33.95,-33.27 51.82,-48.99 55.05,-48.47 121.65993,-101.261 200.41993,-119.499 22.06,-5.102 67.26,-13.461 87.4,5.621 19.44,18.429 -0.18,37.528 -14.28,48.098 -36.81,27.59 -74.87,53.78 -110.86,82.24 -10.28,8.12 -20.27,16.53 -30.2,25.02 38.6,-24.14 78.96,-46.19 121.59,-64.77 37.69,-16.43 77.54,-30.15 119.89,-37.13 29.01,-4.79 88.74,-17.47 115.59,6.39 35.47,31.52 -28.11,49.74 -47.18,59.75 -45.97,24.13 -88.06,53.75 -130.85,81.69 -3.32,2.16 -6.6,4.39 -9.9,6.56 60.9,-31.8 124.36,-61.06 190.7,-83.75 38.7,-13.23 80.06,-22.7 123.26,-23.1 25.93,-0.23 69.27,3.09 84.56,28.72 14.1,23.64 -30.23,38.56 -45.96,46.09 -41.12,19.67 -82.11,39.4 -122.16,60.57 -34.79,18.4 -68.2,38.72 -101.48,59.2 60.64,-28.57 123.26,-54.4 186.56,-77.08 104.69,-37.49 226.81,-78.56 341.34,-11.64 4.52,2.64 3.86,8.28 0.65,10.63 -23.08,16.94 -58.22,23.11 -85.92,33.5 -33.71,12.65 -66.8,26.34 -99.45,40.73 -54.74,24.12 -108.17,50.18 -162.34,75.15 33.5,-6.01 66.84,-11.5 99.42,-16.89 41.68,-6.9 84.69,-13.95 124.62,-25.27 48.5,-13.74 94.1,-29.79 144.44,-39.99 64.96,-13.18 181.98,-36.83 235.28,27.49 2.95,3.56 2.57,9.81 -2.62,10.89 -68.9,14.34 -136.95,30.71 -204.28,48.8 -53.59,14.39 -105.99,32.02 -159.5,46.76 38.11,-0.38 76.17,-0.43 113.31,-6.15 49.66,-7.65 96.75,-21 147.41,-25.86 46.81,-4.49 95.26,-4.25 143.23,3.62 39.67,6.5 98.97,18.35 127.51,49.32 23.68,25.69 -21.85,24.71 -38.87,26.69 -57.78,6.71 -115.56,13.43 -173.34,20.14 -98.06,11.4 -200.88,17.06 -294.79,41.63 36.38,1.97 72.65,4.12 108.86,1.48 57.32,-4.18 114.48,-8.87 172.83,-7.17 50.47,1.47 101.32,7.52 151.07,21.65 28.49,8.09 56.44,18.59 82.88,32.06 15.71,8.01 41.5,18.56 50.35,33.55 16.25,27.51 -26.26,20.1 -42.31,18.33"
         style="fill:#211c1d;fill-opacity:1;fill-rule:nonzero;stroke:none"
         id="path60"
         inkscape:connector-curvature="0" /></g></g></svg>