<svg version="1.1" viewBox="0 0 113.9 113.9" xmlns="http://www.w3.org/2000/svg">
<path d="m111.8 51.89-49.75-49.74c-2.862-2.865-7.508-2.865-10.37 0l-10.33 10.33 13.1 13.1c3.046-1.028 6.537-0.3389 8.964 2.088 2.439 2.442 3.124 5.963 2.07 9.02l12.63 12.63c3.055-1.053 6.58-0.3726 9.02 2.071 3.411 3.41 3.411 8.934 0 12.34-3.411 3.412-8.936 3.412-12.35 0-2.564-2.566-3.199-6.334-1.9-9.494l-11.78-11.78-1e-3 30.99c0.8315 0.4116 1.616 0.961 2.309 1.651 3.41 3.409 3.41 8.933 0 12.35-3.411 3.409-8.938 3.409-12.34 0-3.41-3.415-3.41-8.938 0-12.35 0.8428-0.8412 1.818-1.478 2.858-1.905v-31.28c-1.041-0.425-2.015-1.057-2.859-1.905-2.583-2.581-3.205-6.372-1.88-9.544l-12.92-12.92-34.11 34.1c-2.866 2.867-2.866 7.513 0 10.38l49.74 49.74c2.864 2.865 7.508 2.865 10.38 0l49.51-49.5c2.865-2.866 2.865-7.514 0-10.38" fill="#f05133"/>
</svg>
