<svg version="1.1" viewBox="0 0 194 168" xmlns="http://www.w3.org/2000/svg" xmlns:xlink="http://www.w3.org/1999/xlink">
<linearGradient id="a">
<stop stop-color="#fff68e" offset="0"/>
<stop stop-color="#faea82" offset=".5"/>
<stop stop-color="#d6aa4a" offset="1"/>
</linearGradient>
<radialGradient id="r" cx="497" cy="348" r="9.25" gradientTransform="matrix(.396 0 0 .77 199 17.7)" gradientUnits="userSpaceOnUse" xlink:href="#a"/>
<radialGradient id="q" cx="489" cy="286" r="7.62" gradientTransform="matrix(.329 0 0 .929 199 17.7)" gradientUnits="userSpaceOnUse" xlink:href="#a"/>
<radialGradient id="p" cx="501" cy="395" r="8.93" gradientTransform="matrix(.467 0 0 .654 199 17.7)" gradientUnits="userSpaceOnUse" xlink:href="#a"/>
<radialGradient id="o" cx="338" cy="293" r="7.61" gradientTransform="matrix(.359 0 0 .85 199 17.7)" gradientUnits="userSpaceOnUse" xlink:href="#a"/>
<radialGradient id="n" cx="492" cy="413" r="8.3" gradientTransform="matrix(.553 0 0 .553 199 17.7)" gradientUnits="userSpaceOnUse" xlink:href="#a"/>
<radialGradient id="m" cx="178" cy="342" r="10.1" gradientTransform="matrix(.476 0 0 .642 199 17.7)" gradientUnits="userSpaceOnUse" xlink:href="#a"/>
<radialGradient id="l" cx="509" cy="353" r="249" gradientTransform="matrix(.548 0 0 .558 199 17.7)" gradientUnits="userSpaceOnUse" xlink:href="#a"/>
<radialGradient id="k" cx="552" cy="183" r="9.61" gradientTransform="matrix(.521 0 0 .586 199 17.7)" gradientUnits="userSpaceOnUse" xlink:href="#a"/>
<radialGradient id="j" cx="364" cy="235" r="21.2" gradientTransform="matrix(.699 0 0 .437 199 17.7)" gradientUnits="userSpaceOnUse" xlink:href="#a"/>
<radialGradient id="i" cx="359" cy="160" r="146" gradientTransform="matrix(1 5e-8 -5e-8 1.05 -6.64e-5 -7.6)" gradientUnits="userSpaceOnUse">
<stop stop-color="#fff68e" offset="0"/>
<stop stop-color="#eed26a" offset=".731"/>
<stop stop-color="#d6aa4a" offset="1"/>
</radialGradient>
<g transform="matrix(.586 0 0 .586 -117 -10.4)">
<path d="m389 17.7c-2.8 6.51-2.02 14.1-4.06 20.9-0.47 1.56-2.01 6.26-4.26 5.94-4.61-0.666-2.22-9.51-7.53-9.69l1.67 12.9c-7.99 1-6.9-11.5-10.1-16.5-3.74-5.84-4.64 2.65-4.39 5.27 0.16 1.68 0.498 3.33 0.699 5.01 0.349 2.91 0.432 5.44 0.0647 8.34-7.63-0.0901-4.83-10.1-10.4-11.7l0.417 12.1c-8.46-0.0709-12.3-7.71-16-14.2-1.55-2.7-3.61-7.93-7.33-6.26 1.74 7.52 5.85 14.7 6.27 22.5 0.108 2.02-1.8 7.15-4.6 6.21-6.48-2.18-5.61-13.9-11-17-1.09-0.625-2.81-0.0793-4.01-0.028 4e-3 6.23 2.75 13.8 4.93 19.6 0.469 1.26 1.79 5.67-0.949 5.59-4.89-0.147-6.1-9.62-11.1-8.51 0.607 2.56 2.13 4.63 2.97 7.09 0.517 1.5 1.48 3.02 1.75 4.59 0.606 3.42-3.73 3.7-5.98 3.04-5.31-1.57-9.13-5.91-12.9-9.71-1.05-1.05-3.83-4.76-5.59-3.08-1.95 1.87 1.88 5.16 2.97 6.41 3.25 3.75 6.76 8.15 8.31 12.9 0.667 2.05 0.797 4.98-1.24 6.38-2.02 1.4-5.32-1.14-6.95-2.21-5-3.29-9.97-9.04-16.3-9.18l-1.47 3.75 4.02 5.42 10.4 11.7-12.1-5.01c0.488 3.16 8.07 6.99 6.57 10.3-0.884 1.93-5.27 1.96-6.99 1.72-6.17-0.879-10.5-5.47-16.3-7.12-5.07-1.45-4.12 2.48-1.25 4.75 0.997 0.788 1.96 1.61 2.92 2.44 1.73 1.49 3.39 3.03 5.01 4.64 2.53 2.53 4.75 5.23 7.09 7.93l-12.1-0.417v0.834l11.7 5.42-2.09 8.34c-3.37-9e-3 -6.11-0.927-9.18-2.26-2.09-0.91-4.3-2.42-6.67-2.26-2.84 0.199-4.53 2.79-2.63 5.22 2.85 3.63 8.57 5.7 12.2 8.53 1.39 1.08 3.41 2.93 1.84 4.77-3.11 3.64-11.5-1.03-15.6 0.181v0.834c3.8 2.22 11.6 3.49 13.8 7.58 1.75 3.2-3.23 10.5-6.75 10.2-3.14-0.254-6.03-3.8-8.34-5.66-5.54-4.45-11.5-9.69-17.9-12.8-11.1-5.27-22.1 3.12-30.9 8.59 1.12 3.54 5.56-0.228 8.34 0.403 3.75 0.85 6.6 4.34 9 7.11 11.6 13.4 21.3 28.5 25.7 45.9 1.14 4.57 3.09 10-0.319 14.1-0.915 1.1-2.28 1.24-3.29 2.15-0.755 0.677-0.716 1.64 0.32 1.95 1.91 0.585 4.7-0.304 6.57-0.756 6.12-1.48 13.1-4.78 15.9-10.8 1.73-3.74 2.34-11 6.63-12.5 0.95 4.01 5.46 9.31 5.02 13.3-0.39 3.58-4.16 7.74-6.37 10.4-0.782 0.94-2.67 3-1.54 4.35 1.12 1.34 3.44-1.55 4.14-2.21 3.17-2.99 10.1-7.71 12-0.851 1.63 5.97-3.62 15.6-6.24 20.9-0.73 1.46-4.09 6.02-2.78 7.65 1.51 1.88 4.68-3.01 5.35-3.9 2.63-3.44 11.8-13.6 16.7-9.98 5.97 4.47 3.91 7.67 1.65 13.7-0.637 1.71-2.99 5.99-1.39 7.62 1.55 1.57 3.58 0.132 4.37-1.37 1.43-2.71 5.28-10.8 9.14-8.72 2.41 1.29 6.1 3.47 7.5 5.88 2.19 3.76 0.286 11.3-0.299 15.4-0.337 2.35-2.87 9.7-0.767 11.4 1.94 1.57 3.51-3.15 4.09-4.31 2.05-4.08 4.42-8.26 7.48-11.7 1.1-1.23 2.65-3.29 4.52-2.94 9.69 1.81-0.21 11.5 3.77 16.4 0.805 0.997 2.99 0.925 4.16 1.14l5.01-12.9c2.55 0.981 6.29 1.32 8.17 3.43 1.58 1.77 1.89 4.76 2.34 7 1.28 6.28 1.98 12.4 1.17 18.8 0.793 0.57 2.04 1.89 3.11 1.22 1.35-0.859 1.52-4.37 1.98-5.8 1.47-4.6 3.72-9 5.8-13.3 1.37-2.86 5.12-5.91 7.82-1.97 2.77 4.04 1.66 11.1 3.4 15.7 4.43-2.18 4.91-11.4 5.01-15.9l5.75 0.838 3.45 7.09 6.24 17.9c3.23-1.23 2.21-7.44 2.57-10.4 0.491-4.05 1.43-12.2 4.4-15.2 1.2-1.22 3.58-1.32 5.13-1.9 1.77 4.32 2.74 9.21 4.88 13.3 0.836 1.61 2.74 3.35 4.66 2.36 1.84-0.945 1.77-3.1 1.54-4.86-0.581-4.32-1.56-8.57-1.91-12.9 8.27-0.584 13.1 6.1 18.3 11.7 2.01 2.16 3.76 5.01 6.71 5.84l-4.29-12.5-2.39-11.7c3-1.26 9.35-7.39 12.5-6.5 4.71 1.33 8.31 14.5 14.2 11.4 2.49-1.32 1.2-3.55 0.0334-5.29-1.74-2.6-6.99-8.83-6.42-12.1 0.421-2.42 4.47-5.23 6.83-5.2 5.41 0.0743 14.8 4.19 17.9 8.54l3.75-0.417c-0.563-7.47-11.8-10.9-13.4-18.4-0.16-0.745-0.133-1.64 0.0505-2.38 1.19-4.79 4.07-2.7 7.05-1.41 0.928 0.402 2.96 1.43 3.72 0.283 0.847-1.27-0.654-2.94-1.2-4-1.12-2.16-2.15-4.66-1.69-7.09 3.9 1.02 6.3 3.34 9.59 5.53 0.778 0.518 2.5 1.81 3.48 1.09 1.03-0.76-0.492-2.29-0.984-2.86-1.47-1.7-5.97-5.82-5.53-8.31 0.3-1.68 3.13-3.47 4.28-4.63 3.81-3.81 8.16-7.69 11.3-12.1h0.417c7.37 8.6 30.5 2.57 27.5-10.4-1.84 0.263-3.54 1.71-5.42 1.06-8.22-2.83-6.23-16-15.4-16.1-0.678-8.58-4.13-17.2-8.29-24.6-1.91-3.42-5.87-6.55-7.26-10-0.768-1.93-0.637-4.99-0.727-7.08 4.83-0.752 2.45-5.64 0.69-8.34-1.96-3.02-4.03-6.59-6.57-9.14-3.12-3.13-7.77-5.16-7.37-10.5 0.373-4.94 8.88-4.31 10.3-8.76-2.52 0.108-5.02 0.734-7.51 1.15-6.2 1.03-7.28-1.05-4.38-6.57 2.53-4.82 6.55-8.48 10.1-12.5 1.14-1.29 4.64-4.23 2.84-6.1-1.49-1.55-3.96 0.813-5.22 1.65-4.6 3.05-9.75 5.31-15 6.94-1.57 0.486-6.2 2.3-6.72-0.485-0.708-3.76 6.4-4.46 5.47-8.68-2.84 0.676-8.43 5.17-11.2 3.08-3.29-2.5 1.54-8.9 2.06-11.8 0.523-2.98-1.88-3.09-3.56-1.23-0.592 0.654-1.13 1.37-1.67 2.06-0.943 1.2-1.73 2.36-2.34 3.75-6.83-3.99 6.09-8.62 3.66-12.3-0.867-1.32-2.47 0.0012-3.24 0.682-1.62 1.42-7.72 8.44-9.04 3.29-1.47-5.7 1.49-12.6 3.03-17.9 0.4-1.41 2.21-5.2 0.454-6.21-2.56-1.47-3.68 3.5-4.29 4.96-1.85 4.49-4.9 8.39-8.51 11.6-1.19 1.06-3.2 3.12-4.98 2.63-2.58-0.711-2.59-7.87-2.51-10.1 0.0388-1.04 0.625-2.84-0.394-3.6-1.33-0.985-2.02 0.992-2.22 1.93-0.646 3.07-2.55 11.8-7.1 6.09-4.12-5.21 2.25-16-6.15-18.2l-4.59 14.6c-5.5-1.2-4.28-9.06-2.92-13.3l-2.5-0.834c-0.394 1.7-0.954 3.36-1.54 5.01-2.22 6.24-5.19 7.45-7.49 0.417-1.75-5.37-1.13-11.2-2-16.7-0.804-2.48-0.984-4.56-2.74-5.42z"/>
<path d="m389 30.2c-0.246 11.9-3.85 20.8-17.1 20.9l4.59 18.8c-4.98-5.22-6.79-12.5-9.04-19.2-1.42-4.23-3.24-8.49-3.89-12.9h-0.417c0.156 7.53 1.74 15 0.23 22.5-0.832 4.14-3.16 7.35-4.4 11.3h-0.417l2.5-18.4c-9.31 0.736-17.4 2.15-23.5-6.67-1.33-1.92-2.35-4.11-3.24-6.26h-0.417c1.05 6.98 7.26 15.1-0.0376 21-1.11 0.894-2.4 1.44-3.72 1.96l6.59 10 3.83 5.02c-10.6-6.99-16.8-19.2-22.1-30.5h-0.417c1.35 8.98 6.81 17.1 8.17 26.3 0.472 3.19 1.71 7.7-1.07 10l-3.34-15.9c-4.86 2.52-8.6 10.1-15 9.03-2.73-0.455-4.94-2.67-7.51-3.61 1.21 3.82 4.56 7.44 2.65 11.7-0.706 1.57-2.08 2.77-3.06 4.17l13.3 5.01c-2.44 2.91-7.51 0.626-10.4-0.743-5.54-2.6-10.5-6.03-15.4-9.56-2.82-2.01-6.14-4.88-9.59-5.54 2.12 4.56 7.58 8.42 11.3 11.8 3.05 2.76 5.32 5.94 7.89 9.11 2.53 3.12 5.84 6.63 4.62 10.8-4.44-4.47-8.31-7.73-15-6.16-2.43 0.568-4.49 2-7.09 1.93-4.64-0.114-9.12-2.48-13.3-4.12 2.46 5.27 8.93 8.1 10.3 14.2 1.01 4.47-2.21 10.2-2.8 14.6l14.2 2.09v0.834c-12.2 3.22-20.7-3.46-32.1-5.42v0.417c7.68 3.63 16.4 9.77 21.9 16.3 1.99 2.36 4.43 5.11 4.42 8.34-2.24-1.82-6.48-6.56-9.59-6.08-2.49 0.381-3.31 3.14-3.64 5.25-0.889 5.68-0.949 11.8-0.949 17.5-2.39-2.09-2.09-4.99-2.09-7.93-2.97 1.95-6.17 4.41-10 3.64-3.88-0.778-7.75-5.56-10.4-8.23-5.3-5.27-11.2-10.5-18.8-11.5-3.96-0.54-16 0.0176-10.6 6.07 0.553 0.624 1.11 1.27 1.86 1.66 2.82 1.47 8.85-0.405 12.1-0.405v0.417l-10.4 2.09c4.19 8.78 13.3 0.909 18.4 6.26-3.48-1.03-9.45-1.03-12.9 0l5.83 7.51 2.68 3.5 9.85 1.09v0.417h-8.76c0.517 4.59 5.83 3.34 9.18 2.92v0.417l-7.09 1.25c1.11 2.59 3.84 10.3 6.42 11.4 2.02 0.919 4.83-0.857 6.51-1.83-2.3 4.2-6.42 2.51-4.17 8.34l6.67-3.34c-1.49 1.68-3.99 3-4.99 5.01-1.16 2.32 0.798 6.52 1.66 8.75l6.67-5.01-6.35 7.13 0.512 7.47c5.59-2.33 10.1-6.46 12.5-12.1 0.99-2.34 1.09-5.26 2.27-7.45 0.862-1.6 3.35-1.34 3.86-3.07 0.961-3.31-1.08-6 0.551-9.5h0.417l1.25 6.67c4.21-1.18 6.72-7.81 7.93-11.7h0.834c1.16 5.35-3.68 8.82-5.42 13.3 2.94 0.682 8.24 2.11 7.93 5.84l-10.4-3.75 7.93 17.5h0.417c3.82-5.77 7.5-14.9 12.9-19.2 1.9 6.15-4.67 11.2-7.09 16.3 3.58-0.978 10.1-5.78 13.3-3.75-4.6 1.91-8.68 4.67-12.1 8.34-1.11 1.21-3.14 3.23-3.12 5.01 0.025 1.81 2.25 4 3.26 5.42 3.65 5.15 8.05 10.6 13.6 13.8 2.27-4.31 4.18-8.61 5.37-13.3 0.546-2.17 0.458-5.1 2.56-6.26 2.04 11.5-6.19 24.2-8.76 35 7.84-6.65 12.6-17.4 22.5-21.7-0.229 5.36-8.85 8.2-9.31 14.2-0.162 2.1 2.44 3.19 3.89 4.19 4.05 2.8 7.47 5.92 12.1 7.79 1.66 0.673 3.24 2.09 4.79 0.473 2.81-2.94 3.05-8.64 2.6-12.4-0.284-2.41-1.29-6.09 0.536-7.93l2.9 17.1-1.65 20h0.417c3.9-9.91 7.36-20.7 15-28.4 0.0454 5.23-5.87 12.6-7.93 17.5 7.82 3.66 17 5.87 25.4 7.51 0.662-5.24 0.469-10.3-0.899-15.4-0.613-2.3-2.62-5.37-1.19-7.51 5.17 11.1 10.8 22.4 10.8 35h0.417c5e-3 -7.65 1.34-15.5 2.84-22.9 0.274-1.37 0.668-7.01 2.6-7.01 2.11 0 1.28 3.38 1.07 4.5-0.949 5.12-2.1 10.3-2.76 15.4l17.9-0.448 6.25-1.11-0.167-6.36-8.58-15c3.26-0.745 6.49 5.06 8 7.51 5.52 8.91 9.25 20.3 11.6 30.5h0.417c-1.09-13.8-4.68-26.5-2.92-40.5 4.06 1.63 1.87 11.9 2.39 15.9 0.165 1.27-0.0254 4.59 1.5 5.09 1.43 0.471 3.93-0.758 5.29-1.2 4.91-1.6 9.5-3.91 14.2-6.05 1.79-0.819 4.33-1.82 4.46-4.1 0.452-8.04-6.78-10.3-11.5-14.6 4.21-0.438 7.28 2.32 10.4 4.77 4.7 3.65 9.33 7.79 13.2 12.3 2.21 2.62 3.85 6.14 6.44 8.34-1.43-4.48-4.87-8.69-6.99-12.9-4.11-8.22-7.28-17.1-8.45-26.3h0.417l7.93 20.9c4.31-1.46 7.81-6.58 10.6-10 1.25-1.54 2.81-2.96 2.76-5.01 7-2.52-1.98-8.08-3.34-10.4 4.85-0.729 9.21 3.96 13.8 5.01-2.03-4.35-5.56-10-4.59-15h0.834l2.92 8.34c7.31-6.76 16-13.7 21.4-22.1 7.68-11.9 7.63-26.9 2.26-39.6-1.47-3.48-2.87-8.41-5.47-11.2-3.69-3.98-6.89 2.71-7.35 5.78 1.81 0.272 3.47 0.882 5 1.92 5.66 3.83 5.95 10.5 3.57 16.4-1.01 2.5-2.88 4.73-3.06 7.51-0.223 3.44 1.63 6.7 2.22 10 0.987 5.49-1.7 11.3-5.65 15-3.66 3.38-8.79 5.24-13.8 4.5-2.3-0.34-4.75-2.51-7.09-1.65-3.67 1.36-4.38 6.91-6.68 9.7-1.03-6.27 3.73-9.88 4.72-15.4 0.517-2.89-1.6-7.67-2.5-10.4-0.712-2.19-1.81-8.33-5.14-7.08-2.15 0.808-3.23 3.25-4.49 4.99-2.97 4.12-5.67 9.16-11 10.4 1.94-5.01 7.2-9.2 10.1-13.8 5.84-9.07 12-24.4 4.3-34.2-2.33-2.96-6.07-5.05-9.43-6.62-4.63-2.17-9.72-2.85-14.6-4.22v-0.834l5.84-0.834-1.25-9.18-3.75 1.25c0.0421-15.3 15.3-23.6 25.9-31.7l-1.93 5.42 5.2 7.93 10.5 16.3-4.17-0.417c0.805 5.97 2.23 11.6 0.126 17.5-1.35 3.82-4.68 7.01-5.69 10.8-0.509 1.93 0.418 3.9 0.42 5.84 3e-3 2.71-0.929 5.32-1.53 7.93 7.47-3.56 8.9-14.5 16.7-17.1-0.635-3.69-2.2-7.02-2.47-10.8-0.565-8.24 1.06-16.4-0.22-24.6-1.41-9-5.32-17.1-8.58-25.4l3.75 1.67c0.865-5.77 5.62-8.89 8.76-13.3-4.82 1.75-12.2 7.73-17.5 4.58-3.65-2.17-4.97-6.95-8.76-8.76l-5.01 20h-0.417c-2.2-9.25 2.53-18 4.59-26.7-6.36 5.14-10.8 11.6-19.6 12.9l12.1-8.8 2.78-4.06-3.61-3.12-9.18-6.55 4.17 0.834 1.67-13.3h-0.417c-0.948 1.66-2.07 3.18-3.37 4.59-1.72 1.86-3.99 4.84-6.46 5.69-4.85 1.67-11.6-3.98-16-5.27v19.2c-4.26-0.712-3.71-5.02-3.75-8.76-0.0989-8.25-0.356-16.4-2e-3 -24.6h-0.417c-1.25 9.27-4.29 22.5-13.3 27.1 2.59-4.16 5.06-7.72 6.43-12.5 0.405-1.41 1.59-3.83 0.103-4.95-4.2-3.17-10.7-0.461-14.1-5.49-3.39-4.94-1.17-11.2-3.28-16.3z" fill="url(#i)"/>
<path d="m385 59-6.67 30c5.14-3.13 6.23-14.6 6.67-20h0.417c0.894 4.81 1.33 9.63 3.28 14.2 0.775 1.8 1.63 4.21 3.81 4.17l-5.34-18.8z"/>
<path d="m344 64.4c0.0884 10.7 5.36 20.4 3.34 31.3 2-1.22 2.06-4.08 2.08-6.26 0.0601-5.05-0.819-9.99-0.833-15h0.417c1.45 5.04 5.39 15.1 11.3 15.9-0.705-2.71-2.92-4.76-4.41-7.09-3.3-5.18-6.53-15.6-11.9-18.8z"/>
<path d="m430 69c-4.64 7.28-10.2 17.2-17.1 22.5v0.417c5.26-0.938 10.9-7.59 12.5-12.5h0.417c-0.0613 7.42-3.47 15.3-0.417 22.5h0.417c2.22-7.51 1.06-16.4 2.97-24.2 0.599-2.45 2.81-6.55 1.2-8.76z"/>
<path d="m402 85.7c-2.46 5.56-3.67 10.7-8.76 14.6v0.834c3.66 0.964 6.21-3.63 7.09-6.67h0.417c0.362 2.8 0.703 8.63 3.75 9.59l-2.05-9.59z"/>
<path d="m313 86.1c0.901 10.3 14.7 17.2 12.9 28.4 2.22-1.3 1.64-3.71 0.891-5.84-1.54-4.4-4.12-8.24-5.9-12.5 3.99 3.64 9.89 7.76 15.4 5.42l-8.75-3.63z"/>
<path d="m371 89.4c-1.26 4.15-4.8 12.3-3.34 16.3h0.834l2.92-10h0.417c1.03 3.78 2.11 9.5 6.67 10l-6.67-16.3z"/>
<path d="m343 99.9 2.09 17.5h0.834l-0.417-12.5c2.72 1.89 6.4 6.56 10 5.01-1.39-1.51-3.41-1.77-5-3.06-2.59-2.1-3.95-6.67-7.51-6.95z"/>
<path d="m435 102c-4.4 4.41-8.08 7.44-14.2 9.18v0.834c3.61 1.04 7.11-0.967 10-2.92-0.475 2.45-3.6 8.86-1.25 10.4l4.01-12.1z"/>
<path d="m439 129c9.54-2.3 20-3.66 29.6-1.67-1.44-4.98-5.16-9.08-8.46-12.9-1.13-1.32-2.57-3.76-4.48-3.9-2.26-0.172-4.24 2.01-5.84 3.27-4.69 3.69-8.72 9.62-10.8 15.2z" fill="url(#j)"/>
<path d="m363 112-2.5 12.9c2.09-1.59 2.58-6.65 2.92-9.18l3.75 4.17c-0.438-2.81-2.08-5.99-4.17-7.93z"/>
<path d="m404 113-7.93 7.93 7.51-5.42 1.25 7.51c1.46-2.14 0.694-8-0.834-10m-88.4 1.25v0.417c3.52 3.55 6.41 8.43 8.6 12.9 1.21 2.48 0.866 5.2 3.49 6.67-0.209-4.88-2.29-8.58-4.17-12.9 2.95 1.72 6.92 4.3 10.4 3.34v-0.834c-4.73-2.1-8.4-3.89-12.5-7.17-1.75-1.4-3.55-3.2-5.84-2.42z"/>
<path d="m288 118c0.392 3.52 3.27 4.83 5.84 6.77 3.53 2.67 6.8 5.55 9.5 9.08 1.75 2.3 2.84 6.26 5.1 7.93-0.488-6.13-4.11-13.4-10-15.9v-0.417c6 1.16 12 3.4 17.9 0.834v-0.834l-7.09-0.279z"/>
<path d="m482 119 0.834 10 9.18 1.25c-1.54-4.05-5.92-9.68-10-11.3z" fill="url(#k)"/>
<path d="m381 120-3.75 7.09 4.17-4.59 2.5 4.17z"/>
<path d="m421 130-7.09 5.42 6.26-3.34-0.834 5.01c1.77-1.24 2.44-5.13 1.67-7.09z"/>
<path d="m462 155c3.16-1.51 4.68-5.11 5.53-8.34 1.05-3.98 2.42-14.5-2.63-16.4-2.78-1.09-7.42 0.166-10.4 0.166-2.71 0-8.49-0.413-10.6 1.61-1.94 1.87-0.489 8.9 0.939 10.8 1.48 1.97 5.01 2.36 7.15 3.36 4.26 2 7.69 4.69 10 8.85z" fill="#fff"/>
<path d="m482 132v3.75c7.56-2.74 9.28 8.33 1.25 7.93l1.67 9.59c5.59-2.61 8.16-15.2 3.57-19.9-1.38-1.42-4.62-1.24-6.49-1.38z" fill="#fff"/>
<path d="m460 134c-0.855 0.879-2.1 1.52-2.73 2.59-4.41 7.54 12.3 7.73 7.55-0.418-0.536-0.928-1.49-1.53-2.31-2.17l-2.5 1.25z"/>
<path d="m461 134v0.417h1.67z" fill="#020202"/>
<path d="m463 135 0.417 0.417z" fill="#020202"/>
<path d="m459 135 0.417 0.417z" fill="#010101"/>
<path d="m464 135 0.417 0.417z" fill="#050505"/>
<path d="m458 135 0.417 0.417z" fill="#010101"/>
<path d="m483 135 1.25 0.834v-0.417z" fill="#020202"/>
<path d="m483 135 0.417 0.417z" fill="#050505"/>
<path d="m484 135 0.417 0.417z" fill="#010101"/>
<path d="m485 135 0.417 0.417z" fill="#020202"/>
<path d="m485 135 0.417 0.417z" fill="#010101"/>
<path d="m373 136c0 2.12-0.41 4.28 1.67 5.42v-4.17l5.01 1.67z"/>
<path d="m482 136 0.417 0.417z" fill="#020202"/>
<path d="m482 136 0.834 0.834v-0.834zm2.09 0 0.417 0.417z" fill="#010101"/>
<path d="m481 136 0.417 0.417z" fill="#050505"/>
<path d="m398 142 2.09-3.75 2.5 1.67c-1.83-4.91-4.56-1.39-4.59 2.09z"/>
<path d="m348 137c0.737 2.69 1.89 4.99 4.17 6.67l-2.5-5.42 5.01 0.417c-1.29-2.34-4.32-1.67-6.67-1.67z"/>
<path d="m480 137 0.417 0.417z" fill="#fff"/>
<path d="m480 137 0.417 0.417z" fill="#fff"/>
<path d="m326 140 5.84 7.09-3.34-5.84 5.01-0.834-0.417-1.67z"/>
<path d="m348 139 0.417 0.417z" fill="#0e0d08"/>
<path d="m480 140 0.417 0.417z" fill="#050505"/>
<path d="m480 140v1.25h0.417z" fill="#fff"/>
<path d="m458 141 0.417 0.417z" fill="#050505"/>
<path d="m273 142 0.417 0.417z" fill="#0f0e08"/>
<path d="m480 142 0.417 0.417z" fill="#fff"/>
<path d="m464 142 0.417 0.417z" fill="#010101"/>
<path d="m480 142 0.417 0.417z" fill="#050505"/>
<path d="m460 142 0.417 0.417z" fill="#020202"/>
<path d="m460 142 0.417 0.417zm2.78 0.139 0.278 0.139z" fill="#010101"/>
<path d="m480 142 0.417 0.417z" fill="#fff"/>
<path d="m487 143 0.139 0.278z" fill="#010101"/>
<path d="m487 142 0.417 0.417z" fill="#050505"/>
<path d="m461 143 0.417 0.417z" fill="#050505"/>
<path d="m481 143 0.417 0.417z" fill="#fff"/>
<path d="m284 151v0.834l12.1 4.17c-0.246-3.17-4.35-4.12-7.09-4.59l8.34-7.51c-4.43-0.52-9.76 4.88-13.3 7.09z"/>
<path d="m482 144 0.417 0.417z" fill="#020202"/>
<path d="m302 150v0.834l9.18 3.3 5.42 3.79c-0.594-4.43-5.29-5.17-8.34-7.51 3.88-0.73 9.13-0.792 10.8-5.01z"/>
<path d="m483 149 0.417 0.417z" fill="#010101"/>
<path d="m361 152 1.25-2.92c-1.78 0.283-3.17 1.66-1.25 2.92z"/>
<path d="m426 157v5.01c1.57-1.53 1.57-3.47 0-5.01z"/>
<path d="m344 165 5.01 1.25-2.78-2.68 1.53-4c-2.01 1.04-3.24 3.25-3.75 5.42z"/>
<path d="m268 169c0.541 3.11 3.63 1.44 5.84 1.29 3.18-0.218 9.09 0.813 10.8 3.72l2.92-0.417c-0.746-4.72-7.55-4.71-11.3-5.01 2.73-2.76 6.64-3.58 7.51-7.93z"/>
<path d="m364 164-4.59 5.84 5.84 2.09-4.17-2.5c0.868-1.82 4.28-3.4 2.92-5.42z"/>
<path d="m328 165-5.01 4.59c1.95 0.66 6.47 3.23 7.93 1.25l-5.42-2.09zm108 0 5.84 4.59v0.834l-5.42 2.92c2.85-0.233 5.29-1.1 7.51-2.92-1.62-2.75-4.79-4.82-7.93-5.42z"/>
<path d="m302 167c-2.53 5.66-6.41 10.3-10.8 14.6-2.54 2.48-6.51 4.79-7.51 8.35l18.4-3.9 9.59-1.94c-5.72-4.08-15.8 0.461-21.3 2.92 3.79-7.62 11.2-10.6 12.9-19.6l-0.417-0.417z"/>
<path d="m379 171 2.5 0.417v-4.17c-1.81 0.587-2.02 2.05-2.5 3.75z"/>
<path d="m398 170 0.417 4.59c1.93-1.02 3.2-2.46 3.75-4.59l-2.92 2.09z"/>
<path d="m339 179 0.834-2.92c-1.79 0.521-2.77 1.81-0.834 2.92z"/>
<path d="m477 177 0.417 0.417z" fill="#0e0d05"/>
<path d="m295 177 0.417 0.417z" fill="#0e0d08"/>
<path d="m492 177 0.417 0.417zm-17.5 0.417 0.417 0.417z" fill="#010101"/>
<path d="m492 177 0.417 0.417z" fill="#0e0d05"/>
<path d="m414 178-0.417 5.84-3.75-2.5c0.392 2.53 2.16 3.73 4.59 4.17l0.417-7.51z"/>
<path d="m311 191c2.76-0.118 12.4 0.251 13.8-1.67l-9.18-1.25 5.01-9.59c-3.04 0.949-8.25 9.57-9.59 12.5m33.8 36.3c3.15-1.8 7.24-7.17 8.76-10.4-3.34 1-4.8 4.27-7.09 6.67l-1.25-8.76c9.76-0.852 14-11.5 19.8-17.9 3.49-3.9 7.87-5.59 12.3-7.94-2.63-3.15-6.29 0.179-8.76 2.08-6.62 5.1-10.4 11.3-16.3 17.1l3.34-8.76h-0.417c-1.81 4.35-3.98 9-8.34 11.3l1.67-5.84h-0.417c-1.75 4.19-3.73 6.25-8.34 6.26l4.17-9.59h-0.417l-5.42 9.18-1.67-0.417 4.17-7.93h-0.417c-2.11 3.38-4.33 8.18-8.76 7.09l3.75-7.09c-2.09 1.64-3 5.55-5.46 6.52-1.13 0.443-3.25-0.381-2.79-1.87 0.586-1.93 3.77-3.84 5.02-5.49 4.27-5.61 7.74-14.8 14.1-18.2 5.19-2.83 13.1 0.755 18.8 0.685 3.25-0.0401 6.95-1.16 7.93-4.59-2.65-0.286-5.16 1.43-7.93 1.43-7.01 0.0112-18.5-3.48-24.5 1.28-5.48 4.33-5.8 10.1-9.25 15.6-1.68 2.68-4.66 4.5-7.09 6.44-0.901 0.717-2.53 1.76-2.19 3.13 0.42 1.69 3.3 2.6 4.69 3.24 3.16 1.45 6.6 2.58 10 3.28 1.82 0.373 4.54 0.313 6.08 1.43 2.82 2.05 1.87 9.02 2.26 12.1z"/>
<path d="m509 184-2.23 10.4-1.58 5.4 2.98 2.1-0.834-3.75h0.417c1.93 4.63 3.96 5.42 8.76 5.42l-2.92-6.26c1.92 2.21 2.62 5.34 5.84 5.84l-2.92-5.42c2.67 2.9 3.99 4.9 7.93 2.92v-0.834c-6.95-3.31-7.58-14.4-15.4-15.9z" fill="url(#l)"/>
<path d="m316 185 0.417 0.417z" fill="#0e0d08"/>
<path d="m481 185 0.417 0.417z" fill="#0e0d05"/>
<path d="m343 185 0.417 0.417z" fill="#0f0e08"/>
<path d="m465 185 0.417 0.417z" fill="#010101"/>
<path d="m505 185 0.417 0.417z" fill="#0d0b05"/>
<path d="m316 186 0.417 0.417zm20 0 0.417 0.417z" fill="#0e0d08"/>
<path d="m274 187 0.417 0.417z" fill="#0f0e08"/>
<path d="m456 187 0.417 0.417z" fill="#0f0e07"/>
<path d="m483 187 0.417 0.417z" fill="#010101"/>
<path d="m273 187 0.417 0.417z" fill="#0f0e08"/>
<path d="m341 187 0.417 0.417z" fill="#0f0e07"/>
<path d="m386 187 4.59 5.01 2.09-5.01-2.09 3.34zm42.1 0-0.417 6.26-4.17-2.5c-0.232 2.75 3.98 5.88 6.26 7.09l-0.834-10.8z"/>
<path d="m455 189 0.417 0.417z" fill="#0f0e07"/>
<path d="m248 190 0.417 0.417z" fill="#0f0d06"/>
<path d="m274 190 0.417 0.417z" fill="#0f0e08"/>
<path d="m311 190 0.417 0.417z" fill="#0e0d08"/>
<path d="m370 190 0.417 0.417z" fill="#0f0d06"/>
<path d="m454 190 0.417 0.417zm2.92 0.417 0.417 0.417z" fill="#0f0e07"/>
<path d="m389 191 0.417 0.417zm128 0 0.417 0.417zm-183 0.417 0.417 0.417z" fill="#0e0d08"/>
<path d="m453 191 0.417 0.417z" fill="#0f0e07"/>
<path d="m244 192 0.417 0.417zm123 0 0.417 0.417z" fill="#0f0d06"/>
<path d="m371 192 0.417 0.417z" fill="#0e0d08"/>
<path d="m243 192 0.417 0.417z" fill="#0f0d06"/>
<path d="m389 192 0.417 0.417zm35.9 0 0.417 0.417z" fill="#0e0d08"/>
<path d="m455 193 0.417 0.417z" fill="#0f0e07"/>
<path d="m368 194 0.417 0.417z" fill="#0e0d08"/>
<path d="m243 194 0.417 0.417z" fill="#0f0d06"/>
<path d="m468 194 0.417 0.417zm-178 0.417 0.417 0.417z" fill="#0e0d08"/>
<path d="m315 195c-1.31 6.25-5.77 11.9-9.78 16.7-1.91 2.29-4.84 4.6-5.66 7.51 6.91-1.99 14.7-9.01 22.1-8.34-1.91-3.7-10.8 1.43-14.2 2.09 2.71-4.01 6.41-7.5 8.15-12.1 0.731-1.93 1.19-4.52-0.639-5.84z"/>
<path d="m336 195 0.417 0.417z" fill="#0f0e07"/>
<path d="m364 195 0.417 0.417z" fill="#0e0d08"/>
<path d="m248 195 0.417 0.417zm1.67 0 0.417 0.417z" fill="#0f0d06"/>
<path d="m315 195 0.417 0.417z" fill="#0e0d08"/>
<path d="m450 195 0.417 0.417z" fill="#0f0e07"/>
<path d="m468 196 0.417 0.417zm24.2 0.417 0.417 0.417z" fill="#010101"/>
<path d="m520 196 0.417 0.417z" fill="#0f0e08"/>
<path d="m365 197 0.417 0.417z" fill="#0e0d08"/>
<path d="m276 197 0.417 0.417z" fill="#0f0e08"/>
<path d="m246 197 0.417 0.417z" fill="#0f0d06"/>
<path d="m361 197 0.417 0.417z" fill="#0e0d08"/>
<path d="m246 198 0.417 0.417z" fill="#0f0d06"/>
<path d="m429 198 0.417 0.417z" fill="#0e0d08"/>
<path d="m408 205c-1.76-1.76-3.56-4.19-6.26-3.75l7.93 9.59 2.09-12.1c-3.18 0.503-3.02 3.66-3.75 6.26z"/>
<path d="m515 198 0.417 0.417z" fill="#0f0e07"/>
<path d="m271 199 0.417 0.417zm8.76 0 0.417 0.417z" fill="#0f0e08"/>
<path d="m369 202-0.417-2.09h-1.25l0.417 5.42c2.43-0.42 4.96-4.79 5.42-7.09z"/>
<path d="m492 199 0.417 0.417z" fill="#010101"/>
<path d="m287 199 0.417 0.417zm72.6 0 0.417 0.417zm3.34 0 0.417 0.417zm49.2 0 0.417 0.417z" fill="#0e0d08"/>
<path d="m450 199 0.417 0.417z" fill="#0f0e07"/>
<path d="m525 200 0.417 0.417z" fill="#0d0b05"/>
<path d="m329 200 0.417 0.417z" fill="#0e0d08"/>
<path d="m505 200 0.417 0.417z" fill="#0e0b05"/>
<path d="m290 200 0.417 0.417zm22.5 0 0.417 0.417z" fill="#0e0d08"/>
<path d="m344 201 0.139 0.278z"/>
<path d="m449 201 0.417 0.417z" fill="#0f0e07"/>
<path d="m495 201 0.417 0.417zm12.9 0 0.417 0.417z" fill="#0d0b05"/>
<path d="m495 202 0.417 0.417z" fill="#0d0b05"/>
<path d="m517 202 0.417 0.417z" fill="#0f0d06"/>
<path d="m254 202 0.417 0.417z"/>
<path d="m326 202 0.417 0.417z" fill="#0e0d08"/>
<path d="m445 202 0.417 0.417z" fill="#0f0e07"/>
<path d="m253 203 0.417 0.417zm0.834 0 0.417 0.417z" fill="#0f0d06"/>
<path d="m340 203 0.417 0.417z" fill="#0f0e08"/>
<path d="m357 203 0.417 0.417zm133 0 0.417 0.417zm-82.2 0.834 0.417 0.417zm63.4 0 0.417 0.417z" fill="#0e0d08"/>
<path d="m261 204 0.417 0.417z" fill="#0f0e07"/>
<path d="m356 205 0.417 0.417zm54.2 0 0.417 0.417z" fill="#0e0d08"/>
<path d="m287 205 0.417 0.417z" fill="#0f0e08"/>
<path d="m333 205 0.417 0.417z" fill="#0e0b05"/>
<path d="m338 205 0.417 0.417z" fill="#0e0d08"/>
<path d="m342 205 0.417 0.417z" fill="#0f0e08"/>
<path d="m359 205 0.417 0.417z" fill="#0e0d08"/>
<path d="m496 205 0.417 0.417z" fill="#0d0b05"/>
<path d="m384 205-2.09 5.42h-0.417l-3.34-4.59 2.92 9.59h0.417c1.11-2.79 5.04-7.91 2.5-10.4z"/>
<path d="m430 208 2.5 13.8c-2.66-2.32-10.9-13-14.2-9.18 7.67 2.45 10.9 11.4 17.5 15.4l-2.08-7.93-2.51-12.5z"/>
<path d="m452 211c-2.11 5.17 3.04 10.7 5.01 15.4-5.42-2.8-10.2-7.45-16.7-7.51v1.67c9.29 0.811 14.2 10.3 21.7 14.6-0.0696-7.77-6.74-16.7-9.18-24.2z"/>
<path d="m367 218-2.92 0.417c0.984 2.34 2.72 4.23 3.54 6.67 0.904 2.71 0.317 6.45 3.14 7.93 1.31-2.93 4.52-7.71 3.75-10.8-2.37 1.17-3.49 3.7-3.75 6.26h-0.417z"/>
<path d="m328 218c0 8.19-1.11 15.9-3.34 23.8 2.9 0.106 4.42-2.91 6-5.01 3.11-4.13 6.22-8.69 11.1-10.8v-0.417c-4.96-0.642-11.1 6.77-12.9 10.8h-0.417c1.47-5.68 2.78-12.8 0.417-18.4z"/>
<path d="m399 227-9.59-6.67c0.534 1.71 1.89 2.22 3.15 3.39 2.49 2.31 4.66 7.71 8.11 8.29l0.834-13.8c-3.37 1.28-2.5 5.8-2.5 8.76z"/>
<path d="m423 226c-2.94 5.22 1.35 16 2.09 21.7h-0.417c-2.32-4.91-6.8-8.97-10.4-12.9-0.511-0.559-3.15-4.16-4.1-2.64-0.985 1.58 3.84 5.32 4.75 6.4 3.33 3.95 6.34 8.42 8.87 12.9 1.46 2.61 2.73 6.1 5.5 7.51-2.09-10.8-5.39-21.9-5.42-33z"/>
<path d="m284 230-4.59 12.9 9.59-6.67c-0.168-3.22-1.91-5.34-5.01-6.26z" fill="url(#m)"/>
<path d="m353 234-0.417 0.417c2.04 5.61 4.05 10.3 5.04 16.3 0.46 2.79 0.174 6.43 2.47 8.34 2.35-4.45 3.19-9.61 5.33-14.2 1.23-2.62 3.24-4.93 2.59-7.93-4.01 1.97-6.38 10.9-7.51 15-2.07-5.51-1.44-15.1-7.51-17.9z"/>
<path d="m382 238c4.72 9.37 8.21 18.2 10.8 28.4 2.94-1.65 2.54-4.56 2.5-7.51-0.0759-6.86 2.56-13.7 2.08-20.4-1.97 0.675-2.32 2.69-2.66 4.59-0.823 4.55-0.838 9.25-1.93 13.8-2.26-5.26-4.06-17.7-10.8-18.8z"/>
<path d="m470 241-2.92 5.01 9.18 4.17z" fill="url(#n)"/>
<path d="m319 260-0.834 12.9c3.67-3.92 9.78-12.1 0.834-12.9z" fill="url(#o)"/>
<path d="m429 273c1.61 3.45 5.25 7 8.34 9.18l-3.75-11.7z" fill="url(#p)"/>
<path d="m358 291h0.417l3.75-13.3-4.75-0.806-0.258 3.73z" fill="url(#q)"/>
<path d="m393 280 4.59 13.3c1.03-2.39 4.21-11.6 1.95-13.5-1.75-1.48-4.65-0.335-6.54 0.166z" fill="url(#r)"/>
<path transform="translate(16.9 4.06)" d="m467 177c-1.65-0.3-2.94-1.53-2.94-2.8 0-1.2 0.767-2.41 3.89-6.13 2.49-2.97 2.19-2.89-2.42 0.632-5.1 3.9-8.75 5.38-13.8 5.63-2.36 0.113-4.3 0.054-4.3-0.131 0-0.185 0.697-0.923 1.55-1.64 0.851-0.716 3.71-4.19 6.35-7.73 4.83-6.46 7.18-8.65 10.3-9.55 4.9-1.44 11.2 2.35 12.6 7.58 1.32 4.86-2.96 12.7-7.66 14-1.01 0.281-1.95 0.481-2.08 0.446-0.135-0.0352-0.797-0.164-1.47-0.287z" fill="#fef666"/>
<path transform="translate(16.9 4.06)" d="m460 205c-1.61-0.445-3.67-2.12-5.17-4.19-1.79-2.47-3.05-5.85-5.17-13.9-0.929-3.5-1.8-6.74-1.94-7.18-0.686-2.24 4.19-3.37 10.2-2.37 4.69 0.791 6.42 2.37 7.26 6.62 0.318 1.61 0.638 3.14 0.712 3.41 0.0737 0.27 0.42-1.02 0.769-2.87 0.388-2.05 1.06-3.85 1.74-4.64l1.1-1.28 1.79 1.21c2.81 1.9 4.4 5.61 4.37 10.2-0.0419 6.52-2.73 11.6-7.25 13.7-2.24 1.05-6.61 1.68-8.35 1.2z" fill="#fef67a"/>
</g>
</svg>
