<?xml version="1.0" encoding="UTF-8" standalone="no"?>
<svg
   xmlns:dc="http://purl.org/dc/elements/1.1/"
   xmlns:cc="http://creativecommons.org/ns#"
   xmlns:rdf="http://www.w3.org/1999/02/22-rdf-syntax-ns#"
   xmlns:svg="http://www.w3.org/2000/svg"
   xmlns="http://www.w3.org/2000/svg"
   xmlns:xlink="http://www.w3.org/1999/xlink"
   xmlns:sodipodi="http://sodipodi.sourceforge.net/DTD/sodipodi-0.dtd"
   xmlns:inkscape="http://www.inkscape.org/namespaces/inkscape"
   height="167.60811"
   width="194.38968"
   version="1.1"
   id="svg1419"
   sodipodi:docname="ssh-plain.svg"
   inkscape:version="0.92.5 (2060ec1f9f, 2020-04-08)">
  <metadata
     id="metadata1425">
    <rdf:RDF>
      <cc:Work
         rdf:about="">
        <dc:format>image/svg+xml</dc:format>
        <dc:type
           rdf:resource="http://purl.org/dc/dcmitype/StillImage" />
        <dc:title></dc:title>
      </cc:Work>
    </rdf:RDF>
  </metadata>
  <defs
     id="defs1423" />
  <sodipodi:namedview
     pagecolor="#ffffff"
     bordercolor="#666666"
     borderopacity="1"
     objecttolerance="10"
     gridtolerance="10"
     guidetolerance="10"
     inkscape:pageopacity="0"
     inkscape:pageshadow="2"
     inkscape:window-width="1520"
     inkscape:window-height="846"
     id="namedview1421"
     showgrid="false"
     inkscape:zoom="4.2159479"
     inkscape:cx="94.897136"
     inkscape:cy="86.681658"
     inkscape:window-x="2018"
     inkscape:window-y="110"
     inkscape:window-maximized="0"
     inkscape:current-layer="g1417" />
  <linearGradient
     id="a">
    <stop
       offset="0"
       stop-color="#fff68e"
       id="stop2" />
    <stop
       offset=".5"
       stop-color="#faea82"
       id="stop4" />
    <stop
       offset="1"
       stop-color="#d6aa4a"
       id="stop6" />
  </linearGradient>
  <radialGradient
     id="b"
     cx="497.43198"
     cy="348.19943"
     gradientTransform="matrix(0.39649022,0,0,0.77024994,199.23584,17.698948)"
     gradientUnits="userSpaceOnUse"
     r="9.2470999"
     xlink:href="#a" />
  <radialGradient
     id="c"
     cx="488.70059"
     cy="285.96576"
     gradientTransform="matrix(0.32863721,0,0,0.92928183,199.23584,17.698948)"
     gradientUnits="userSpaceOnUse"
     r="7.6160898"
     xlink:href="#a" />
  <radialGradient
     id="d"
     cx="501.06473"
     cy="394.90552"
     gradientTransform="matrix(0.46705482,0,0,0.65387736,199.23584,17.698948)"
     gradientUnits="userSpaceOnUse"
     r="8.9316282"
     xlink:href="#a" />
  <radialGradient
     id="e"
     cx="338.41714"
     cy="292.82816"
     gradientTransform="matrix(0.35939143,0,0,0.8497603,199.23584,17.698948)"
     gradientUnits="userSpaceOnUse"
     r="7.6091208"
     xlink:href="#a" />
  <radialGradient
     id="f"
     cx="492.17062"
     cy="412.90756"
     gradientTransform="matrix(0.55262532,0,0,0.55262864,199.23584,17.698948)"
     gradientUnits="userSpaceOnUse"
     r="8.3034754"
     xlink:href="#a" />
  <radialGradient
     id="g"
     cx="178.33974"
     cy="341.68225"
     gradientTransform="matrix(0.47600886,0,0,0.64157749,199.23584,17.698948)"
     gradientUnits="userSpaceOnUse"
     r="10.078173"
     xlink:href="#a" />
  <radialGradient
     id="h"
     cx="509.23199"
     cy="353.12115"
     gradientTransform="matrix(0.54750588,0,0,0.55779598,199.23584,17.698948)"
     gradientUnits="userSpaceOnUse"
     r="248.78087"
     xlink:href="#a" />
  <radialGradient
     id="i"
     cx="507.44736"
     cy="320.43503"
     gradientTransform="matrix(0.55139061,0,0,0.55386614,199.23584,17.698948)"
     gradientUnits="userSpaceOnUse"
     r="25.233341"
     xlink:href="#a" />
  <radialGradient
     id="j"
     cx="429.49573"
     cy="326.1861"
     gradientTransform="matrix(0.65363747,0,0,0.46722624,199.23584,17.698948)"
     gradientUnits="userSpaceOnUse"
     r="23.595718"
     xlink:href="#a" />
  <radialGradient
     id="k"
     cx="551.64862"
     cy="183.2599"
     gradientTransform="matrix(0.52102139,0,0,0.58614977,199.23584,17.698948)"
     gradientUnits="userSpaceOnUse"
     r="9.6077843"
     xlink:href="#a" />
  <radialGradient
     id="l"
     cx="364.33224"
     cy="234.70634"
     gradientTransform="matrix(0.69901577,0,0,0.43689513,199.23584,17.698948)"
     gradientUnits="userSpaceOnUse"
     r="21.185574"
     xlink:href="#a" />
  <radialGradient
     id="m"
     cx="359.24802"
     cy="159.9493"
     gradientTransform="matrix(1.0000002,5e-8,-5e-8,1.0474956,-6.644e-5,-7.5969205)"
     gradientUnits="userSpaceOnUse"
     r="145.69286">
    <stop
       offset="0"
       stop-color="#fff68e"
       id="stop20" />
    <stop
       offset=".73100191"
       stop-color="#eed26a"
       id="stop22" />
    <stop
       offset="1"
       stop-color="#d6aa4a"
       id="stop24" />
  </radialGradient>
  <g
     transform="matrix(0.58569574,0,0,0.58569574,-116.69161,-10.366203)"
     id="g1417">
    <path
       d="m 388.62481,17.698956 c -2.79911,6.50576 -2.01571,14.096257 -4.05518,20.85782 -0.47012,1.557369 -2.00985,6.262181 -4.26247,5.936424 -4.60542,-0.665988 -2.21929,-9.514082 -7.53429,-9.690834 l 1.66866,12.931847 c -7.98607,1.003051 -6.89646,-11.463788 -10.13817,-16.528233 -3.74062,-5.843776 -4.64129,2.651029 -4.39139,5.26501 0.15976,1.6753 0.49808,3.334999 0.69874,5.005878 0.34915,2.90779 0.43171,5.437799 0.0647,8.343125 -7.63106,-0.09014 -4.82985,-10.134228 -10.4289,-11.680373 l 0.41712,12.097535 c -8.45995,-0.07092 -12.31568,-7.707384 -16.03005,-14.183321 -1.551,-2.70313 -3.61385,-7.926384 -7.33071,-6.257345 1.73873,7.515113 5.85271,14.70852 6.27237,22.526446 0.10848,2.021333 -1.79918,7.152562 -4.60249,6.20841 -6.47762,-2.182058 -5.60823,-13.934191 -11.00585,-17.026487 -1.09127,-0.625275 -2.81497,-0.0793 -4.01301,-0.02799 0.004,6.234234 2.74612,13.770331 4.92534,19.606348 0.46891,1.255226 1.78543,5.668323 -0.94902,5.586142 -4.88738,-0.146839 -6.10426,-9.622214 -11.06802,-8.506234 0.6074,2.555917 2.12585,4.630434 2.9727,7.091658 0.51725,1.503847 1.47545,3.023549 1.75332,4.588302 0.6065,3.421954 -3.72814,3.699318 -5.97744,3.03648 -5.31417,-1.566841 -9.13072,-5.911102 -12.93186,-9.710568 -1.0533,-1.052898 -3.83285,-4.760041 -5.58656,-3.077358 -1.95061,1.871361 1.87971,5.159386 2.96595,6.414612 3.24674,3.753155 6.75962,8.149142 8.31063,12.931853 0.66657,2.054888 0.79716,4.975024 -1.24314,6.384996 -2.02405,1.398699 -5.31666,-1.140069 -6.94984,-2.214707 -5.00127,-3.290949 -9.97292,-9.041862 -16.26906,-9.17615 l -1.47468,3.754382 4.01516,5.423039 10.39133,11.680379 -12.09751,-5.005861 c 0.48847,3.162463 8.06532,6.994876 6.57356,10.254099 -0.88399,1.93188 -5.26748,1.96399 -6.99073,1.71829 -6.16765,-0.87896 -10.53197,-5.471451 -16.26907,-7.117561 -5.06597,-1.453354 -4.1232,2.476266 -1.25109,4.746016 0.99661,0.787605 1.95691,1.613555 2.9197,2.442445 1.7337,1.49176 3.38771,3.02519 5.00586,4.64295 2.53048,2.52965 4.74767,5.23448 7.09169,7.92594 l -12.09755,-0.41712 v 0.8343 l 11.68037,5.42304 -2.08578,8.34312 c -3.37273,-0.009 -6.10719,-0.92731 -9.17742,-2.26268 -2.09246,-0.91023 -4.29507,-2.42238 -6.67453,-2.2551 -2.84041,0.19939 -4.52948,2.79287 -2.62641,5.21652 2.85293,3.63303 8.56799,5.7025 12.21892,8.53295 1.39329,1.08044 3.41192,2.92677 1.83589,4.77099 -3.1124,3.64264 -11.50056,-1.03076 -15.59996,0.18066 v 0.8343 c 3.80447,2.22051 11.60529,3.48741 13.84415,7.58138 1.75083,3.2017 -3.22795,10.45935 -6.75249,10.1753 -3.14035,-0.25366 -6.02665,-3.79821 -8.34313,-5.65874 -5.544,-4.45312 -11.47555,-9.6918 -17.93772,-12.76458 -11.0808,-5.26907 -22.08613,3.12284 -30.86957,8.59258 1.12342,3.54499 5.55778,-0.22818 8.34313,0.40342 3.7489,0.84972 6.59695,4.33757 9.00039,7.1054 11.61355,13.3749 21.33388,28.53976 25.67656,45.88721 1.14301,4.56664 3.09447,10.03096 -0.3187,14.12327 -0.91524,1.09669 -2.27989,1.24021 -3.28945,2.14585 -0.75468,0.67703 -0.71559,1.6365 0.31963,1.9531 1.91107,0.58484 4.69726,-0.30411 6.57279,-0.75589 6.12303,-1.47546 13.11289,-4.77851 15.89326,-10.79181 1.72951,-3.74067 2.33817,-11.01838 6.63319,-12.51468 0.95029,4.00926 5.4589,9.31343 5.02006,13.34898 -0.39005,3.58462 -4.16487,7.73783 -6.37251,10.39138 -0.78174,0.93985 -2.66897,3.0006 -1.53967,4.35011 1.12382,1.34283 3.4432,-1.5489 4.14359,-2.2105 3.16578,-2.98938 10.08561,-7.71114 11.96443,-0.85061 1.63362,5.96578 -3.61506,15.61083 -6.23689,20.8578 -0.72958,1.45966 -4.08977,6.02248 -2.77783,7.65024 1.51259,1.87639 4.67715,-3.0127 5.3513,-3.8958 2.62929,-3.44364 11.83678,-13.64895 16.72835,-9.98133 5.96578,4.47319 3.90879,7.67069 1.64777,13.73571 -0.63696,1.70828 -2.98932,5.99164 -1.38996,7.61647 1.54768,1.57184 3.58002,0.13225 4.371,-1.36703 1.43163,-2.71445 5.28366,-10.78015 9.13735,-8.7215 2.412,1.28861 6.10051,3.47326 7.50341,5.88067 2.19299,3.76316 0.28576,11.27364 -0.2987,15.36341 -0.3366,2.35486 -2.86835,9.70264 -0.76671,11.40423 1.94143,1.57184 3.51122,-3.1545 4.09436,-4.31253 2.05494,-4.08104 4.41897,-8.26012 7.47798,-11.68038 1.09796,-1.22772 2.65018,-3.28509 4.51612,-2.93594 9.68927,1.81378 -0.20983,11.46552 3.7661,16.39257 0.80468,0.997 2.98684,0.92527 4.1599,1.14383 l 5.00586,-12.93186 c 2.5459,0.98075 6.29072,1.32072 8.16832,3.42651 1.5777,1.76962 1.88767,4.75895 2.34358,7.00239 1.27652,6.28199 1.97526,12.39001 1.16848,18.77208 0.79302,0.57025 2.04361,1.89429 3.10819,1.21555 1.34659,-0.85933 1.51846,-4.36508 1.97857,-5.80429 1.47176,-4.6025 3.71692,-9.00307 5.80308,-13.34898 1.37411,-2.863 5.1202,-5.91195 7.82377,-1.9694 2.77324,4.04346 1.6628,11.11637 3.39567,15.73556 4.43063,-2.18382 4.91368,-11.40716 5.00586,-15.85194 l 5.74632,0.83806 3.45199,7.08788 6.2365,17.93772 c 3.22751,-1.23479 2.20548,-7.44162 2.56757,-10.4289 0.491,-4.04976 1.43041,-12.18554 4.39973,-15.19951 1.19727,-1.21517 3.57799,-1.31824 5.13021,-1.90391 1.77045,4.31635 2.74158,9.21163 4.8845,13.34274 0.83557,1.61024 2.73948,3.34604 4.66461,2.35861 1.84263,-0.94527 1.77338,-3.09615 1.53681,-4.85527 -0.58109,-4.32259 -1.56433,-8.57301 -1.90845,-12.93186 8.27012,-0.58402 13.12163,6.1026 18.31771,11.68038 2.0078,2.15547 3.75609,5.01045 6.71165,5.84022 l -4.28794,-12.51474 -2.38657,-11.68038 c 3.00104,-1.25601 9.35183,-7.39409 12.51468,-6.50011 4.71097,1.33156 8.31018,14.45866 14.15874,11.37296 2.49456,-1.31575 1.20473,-3.54582 0.0334,-5.28997 -1.74459,-2.59724 -6.99029,-8.83457 -6.42213,-12.0959 0.42088,-2.41697 4.46942,-5.23238 6.83052,-5.19983 5.40839,0.0743 14.81112,4.19118 17.93772,8.53543 l 3.75438,-0.41718 c -0.56274,-7.46831 -11.75548,-10.87481 -13.3565,-18.35445 -0.15976,-0.74505 -0.13268,-1.6444 0.0505,-2.38448 1.18892,-4.79437 4.07269,-2.70063 7.0487,-1.41246 0.92819,0.40171 2.95639,1.43169 3.72438,0.28323 0.84684,-1.26607 -0.65371,-2.93595 -1.2039,-3.9955 -1.12344,-2.16254 -2.15381,-4.66008 -1.68618,-7.09164 3.89751,1.01949 6.30282,3.33765 9.5946,5.52732 0.77843,0.51765 2.49589,1.81461 3.47829,1.09166 1.03325,-0.76047 -0.49228,-2.29478 -0.98367,-2.8646 -1.47005,-1.70452 -5.97158,-5.8206 -5.52732,-8.30559 0.29991,-1.67739 3.13035,-3.47448 4.28418,-4.62627 3.81407,-3.8082 8.15749,-7.68858 11.2632,-12.0975 h 0.41718 c 7.36867,8.59507 30.46577,2.56756 27.53232,-10.42895 -1.83716,0.26283 -3.54334,1.70701 -5.42304,1.05916 -8.21629,-2.83249 -6.23065,-15.99457 -15.43476,-16.07675 -0.6783,-8.5797 -4.12569,-17.15558 -8.28559,-24.61223 -1.90723,-3.41905 -5.87189,-6.54686 -7.25682,-10.02803 -0.7676,-1.93021 -0.63702,-4.99005 -0.72671,-7.07539 4.82609,-0.75174 2.44748,-5.63702 0.6904,-8.34312 -1.95774,-3.01563 -4.02887,-6.59356 -6.56936,-9.13863 -3.12118,-3.12621 -7.76954,-5.16402 -7.36911,-10.46731 0.37253,-4.93954 8.88381,-4.31176 10.32799,-8.76068 -2.52379,0.108425 -5.01879,0.73378 -7.50882,1.14841 -6.1981,1.03248 -7.27771,-1.052474 -4.38349,-6.571449 2.52882,-4.821947 6.55355,-8.48078 10.1044,-12.51468 1.13669,-1.290716 4.64123,-4.232073 2.8358,-6.101776 -1.49176,-1.545145 -3.95504,0.813467 -5.21945,1.651968 -4.60499,3.052711 -9.74602,5.308701 -15.01764,6.941879 -1.56974,0.486422 -6.19937,2.29727 -6.7237,-0.485151 -0.70792,-3.756095 6.4029,-4.457324 5.47222,-8.681438 -2.84459,0.675807 -8.43447,5.165238 -11.1677,3.084045 -3.28885,-2.504616 1.541,-8.898378 2.05743,-11.843924 0.52311,-2.9835 -1.87634,-3.093213 -3.565,-1.227274 -0.59153,0.653686 -1.12802,1.368692 -1.67325,2.061172 -0.94316,1.198073 -1.72535,2.36027 -2.33772,3.75441 -6.83218,-3.988851 6.09421,-8.623457 3.66138,-12.315459 -0.86685,-1.315755 -2.46621,0.0012 -3.2442,0.682219 -1.6219,1.419582 -7.71865,8.444913 -9.04479,3.288025 -1.46717,-5.70353 1.49463,-12.55474 3.02895,-17.935636 0.40049,-1.405275 2.20968,-5.196937 0.45426,-6.206498 -2.56176,-1.473436 -3.6847,3.497316 -4.28502,4.955025 -1.84842,4.488232 -4.90323,8.390353 -8.5083,11.607963 -1.18765,1.059911 -3.20208,3.117031 -4.98127,2.627166 -2.5822,-0.710916 -2.59182,-7.873409 -2.51086,-10.063564 0.0388,-1.042763 0.62491,-2.841834 -0.3938,-3.597347 -1.32862,-0.98545 -2.02278,0.99154 -2.22051,1.930641 -0.6458,3.071396 -2.55175,11.845449 -7.10463,6.092569 -4.11939,-5.205901 2.25141,-16.004415 -6.14969,-18.192022 l -4.58873,14.600471 c -5.49897,-1.200283 -4.27877,-9.062679 -2.92008,-13.349003 l -2.50296,-0.834312 c -0.3938,1.701914 -0.954,3.359989 -1.54012,5.005878 -2.22261,6.239617 -5.19403,7.454794 -7.48798,0.417156 -1.75078,-5.371308 -1.13007,-11.166359 -2.00107,-16.686255 -0.80383,-2.48133 -0.98409,-4.563739 -2.73709,-5.423033 z"
       id="outline"
       inkscape:connector-curvature="0"
       sodipodi:nodetypes="cccccccccccccccccccccccccccccccccccccccccccccccccccccccccccccccccccccccccccccccccccccccccccccccccccccccccccccccscccccccccccccccccccccccccccccccccccccccccccccccccccccccccccccc" />
    <path
       d="m 389.04199,30.213645 c -0.24614,11.91887 -3.84535,20.849019 -17.10342,20.857822 l 4.58874,18.772037 c -4.97834,-5.217379 -6.79383,-12.519908 -9.03855,-19.189193 -1.425,-4.233222 -3.23922,-8.487339 -3.89331,-12.931847 h -0.41718 c 0.15562,7.530835 1.74332,15.003485 0.22989,22.52644 -0.83225,4.135689 -3.16329,7.350293 -4.40145,11.263224 h -0.41712 l 2.5029,-18.354881 c -9.31298,0.736116 -17.35287,2.147188 -23.45504,-6.674502 -1.32569,-1.916709 -2.34938,-4.111329 -3.24298,-6.257345 h -0.41712 c 1.0454,6.98011 7.26141,15.124881 -0.0376,20.979626 -1.11459,0.893969 -2.40155,1.442943 -3.71686,1.96397 l 6.59445,9.995464 3.83451,5.022164 C 330.09819,71.197174 323.82001,59.024465 318.54253,47.734213 h -0.41712 c 1.34576,8.984842 6.80632,17.107165 8.16501,26.280851 0.47178,3.187497 1.70612,7.696546 -1.07337,10.011777 l -3.33726,-15.851967 c -4.85902,2.52088 -8.59843,10.099341 -15.01764,9.029345 -2.73025,-0.455089 -4.93993,-2.665597 -7.50876,-3.606334 1.20931,3.821582 4.55702,7.435431 2.64769,11.68038 -0.70626,1.570621 -2.08495,2.774519 -3.06487,4.17156 l 13.34898,5.005916 c -2.43575,2.914665 -7.5071,0.626126 -10.4289,-0.743394 -5.53859,-2.595965 -10.46725,-6.026231 -15.43476,-9.564149 -2.82293,-2.010678 -6.14471,-4.877376 -9.5946,-5.544396 2.12458,4.555746 7.57807,8.416951 11.2632,11.751281 3.04691,2.756558 5.32291,5.943614 7.89262,9.106519 2.53087,3.115328 5.83851,6.630698 4.62206,10.846078 -4.43687,-4.47357 -8.31139,-7.72573 -15.01758,-6.1593 -2.43415,0.56815 -4.48738,1.99813 -7.09169,1.93391 -4.63793,-0.11428 -9.11735,-2.47665 -13.34899,-4.11773 2.45665,5.26781 8.93173,8.1045 10.31252,14.18328 1.01496,4.4665 -2.20592,10.16613 -2.8037,14.60046 l 14.18329,2.08584 v 0.8343 c -12.16299,3.21795 -20.73263,-3.46199 -32.12101,-5.42304 v 0.41712 c 7.68108,3.63386 16.38672,9.7715 21.86314,16.26912 1.99195,2.3632 4.43439,5.10727 4.4177,8.34312 -2.2414,-1.81588 -6.47596,-6.55896 -9.59421,-6.08089 -2.48831,0.38132 -3.31095,3.14285 -3.6401,5.24659 -0.88851,5.67835 -0.94902,11.77631 -0.94902,17.52054 -2.38945,-2.087 -2.08578,-4.99376 -2.08578,-7.92594 -2.96805,1.9548 -6.17473,4.40725 -10.01173,3.638 -3.88124,-0.77838 -7.74744,-5.5586 -10.42892,-8.2263 -5.29785,-5.27035 -11.17091,-10.46814 -18.77204,-11.50354 -3.96436,-0.53975 -15.96983,0.0176 -10.60403,6.07216 0.55328,0.62408 1.10763,1.27275 1.86018,1.66484 2.8247,1.47259 8.85277,-0.40546 12.0811,-0.40546 v 0.41718 l -10.42891,2.08578 c 4.19005,8.78157 13.2634,0.90896 18.35488,6.25734 -3.47871,-1.02828 -9.45313,-1.02828 -12.93184,0 l 5.82829,7.50882 2.6774,3.50288 9.84919,1.08585 v 0.41713 h -8.76029 c 0.5174,4.59415 5.83051,3.34311 9.17744,2.92008 v 0.41718 l -7.09165,1.25148 c 1.11397,2.58513 3.83596,10.252 6.42003,11.42716 2.02238,0.91941 4.83401,-0.85729 6.51181,-1.83257 -2.30312,4.19864 -6.4192,2.50628 -4.17156,8.34312 l 6.6745,-3.33725 c -1.48758,1.67738 -3.98843,3.00397 -4.99253,5.01216 -1.15886,2.31689 0.79844,6.51552 1.65527,8.75399 l 6.67451,-5.00586 -6.35204,7.13044 0.51185,7.47002 c 5.59198,-2.32855 10.12271,-6.46131 12.50846,-12.09755 0.98987,-2.33817 1.09293,-5.26494 2.27262,-7.45334 0.86227,-1.59936 3.35478,-1.34156 3.85662,-3.07067 0.96074,-3.30847 -1.08337,-5.99578 0.55147,-9.49949 h 0.41718 l 1.25147,6.67452 c 4.21367,-1.18346 6.72454,-7.80956 7.92595,-11.68038 h 0.83435 c 1.16345,5.35252 -3.6806,8.81954 -5.42304,13.34898 2.94468,0.68166 8.24089,2.11081 7.92595,5.84021 l -10.4289,-3.75443 7.92599,17.52059 h 0.41713 c 3.81616,-5.76721 7.50384,-14.94005 12.93185,-19.18919 1.89557,6.1535 -4.67257,11.15516 -7.09164,16.26911 3.5771,-0.97826 10.06345,-5.78136 13.34898,-3.75443 -4.59708,1.91391 -8.68143,4.67218 -12.0587,8.34312 -1.11007,1.20726 -3.1429,3.23425 -3.1187,5.00591 0.025,1.81212 2.25267,4.00467 3.25674,5.42304 3.64552,5.14938 8.05277,10.56949 13.58932,13.76616 2.26599,-4.30673 4.18073,-8.61346 5.37004,-13.34904 0.54605,-2.17337 0.45846,-5.10096 2.5559,-6.25734 2.04157,11.50934 -6.19019,24.19589 -8.7603,35.04114 7.84173,-6.6507 12.57768,-17.40504 22.52646,-21.69216 -0.22862,5.36297 -8.85037,8.20176 -9.31215,14.1771 -0.16186,2.09622 2.4441,3.18788 3.88873,4.18825 4.04556,2.80242 7.46914,5.91775 12.09794,7.78955 1.66484,0.67327 3.23795,2.08871 4.7852,0.47349 2.8116,-2.93594 3.05315,-8.64308 2.60469,-12.44505 -0.28449,-2.40779 -1.28524,-6.08962 0.53605,-7.92594 l 2.90384,17.10336 -1.65236,20.02356 h 0.41718 c 3.89956,-9.91081 7.3553,-20.68306 15.01764,-28.36668 0.0454,5.22741 -5.86857,12.5794 -7.926,17.5206 7.82293,3.65845 16.98952,5.86857 25.44654,7.50882 0.66205,-5.2399 0.4689,-10.30417 -0.89896,-15.43482 -0.61281,-2.2981 -2.62393,-5.37004 -1.18682,-7.50882 5.17397,11.13433 10.83773,22.42715 10.84608,35.04114 h 0.41712 c 0.005,-7.64941 1.33868,-15.45311 2.83669,-22.94358 0.27366,-1.36869 0.66785,-7.00532 2.60094,-7.00532 2.10998,0 1.2832,3.37732 1.07464,4.50236 -0.94903,5.12103 -2.10164,10.26914 -2.75783,15.43482 l 17.93772,-0.44846 6.24568,-1.11255 -0.1669,-6.36499 -8.58174,-15.01764 c 3.26343,-0.74499 6.48762,5.06428 8.00358,7.50882 5.52395,8.90923 9.24584,20.26461 11.60279,30.45246 h 0.41713 c -1.09,-13.78871 -4.68341,-26.51156 -2.92008,-40.46418 4.05976,1.63025 1.87263,11.90314 2.3853,15.85194 0.16518,1.27104 -0.0254,4.59078 1.50132,5.09428 1.42793,0.471 3.92962,-0.75837 5.2908,-1.20224 4.90909,-1.60019 9.49783,-3.90834 14.18333,-6.05209 1.78963,-0.81889 4.32757,-1.8192 4.45567,-4.099 0.45216,-8.03526 -6.7767,-10.31915 -11.54731,-14.59881 4.20992,-0.43757 7.28313,2.32402 10.4289,4.76602 4.698,3.64679 9.32636,7.78707 13.16584,12.3374 2.21222,2.62183 3.85121,6.14013 6.44048,8.34312 -1.42749,-4.47981 -4.8682,-8.68851 -6.98857,-12.9318 -4.10945,-8.22425 -7.28401,-17.13387 -8.44619,-26.2809 h 0.41718 l 7.92594,20.85786 c 4.30839,-1.46463 7.80503,-6.58273 10.59121,-10.01178 1.25314,-1.54221 2.80536,-2.96136 2.75783,-5.00586 7.00361,-2.51882 -1.97653,-8.07614 -3.33726,-10.4289 4.85024,-0.7288 9.21329,3.96422 13.76616,5.00586 -2.02947,-4.34762 -5.55904,-10.02885 -4.58874,-15.01764 h 0.8343 l 2.92008,8.34312 c 7.30778,-6.75625 15.96042,-13.68895 21.40059,-22.10927 7.68273,-11.89104 7.6335,-26.92913 2.25887,-39.62982 -1.47132,-3.47702 -2.87339,-8.40822 -5.46725,-11.20153 -3.69183,-3.97505 -6.88684,2.71489 -7.34613,5.77849 1.81422,0.27194 3.47326,0.88227 5.0042,1.9185 5.65708,3.82904 5.94826,10.54025 3.5671,16.43634 -1.00948,2.50003 -2.87919,4.73391 -3.0594,7.50882 -0.2232,3.43739 1.62605,6.70287 2.22013,10.01177 0.98655,5.49267 -1.7016,11.33958 -5.64664,14.97885 -3.65933,3.37561 -8.78864,5.23735 -13.76577,4.50192 -2.30141,-0.33998 -4.75054,-2.51296 -7.08998,-1.6486 -3.66972,1.35576 -4.38266,6.90856 -6.67618,9.70015 -1.03496,-6.27193 3.72604,-9.88329 4.72054,-15.43481 0.51732,-2.88671 -1.59687,-7.66687 -2.4971,-10.4289 -0.71206,-2.18504 -1.81212,-8.33229 -5.13893,-7.07954 -2.14795,0.80844 -3.22756,3.24795 -4.48695,4.99376 -2.97142,4.119 -5.67371,9.16327 -10.9524,10.4289 1.93934,-5.00586 7.19802,-9.19577 10.14021,-13.76616 5.83729,-9.06728 12.02704,-24.39572 4.29756,-34.2064 -2.32899,-2.95594 -6.06713,-5.04509 -9.43191,-6.62483 -4.62919,-2.17382 -9.7227,-2.85045 -14.60046,-4.22163 v -0.8343 l 5.84016,-0.83436 -1.25147,-9.17742 -3.75439,1.25148 c 0.0421,-15.27295 15.32755,-23.60519 25.86366,-31.70388 l -1.92596,5.42304 5.20022,7.92594 10.4919,16.26912 -4.17156,-0.41718 c 0.80474,5.97495 2.23223,11.57278 0.12562,17.5206 -1.35411,3.82279 -4.68468,7.00902 -5.69339,10.84608 -0.50891,1.93474 0.41801,3.89535 0.42011,5.84016 0.003,2.71235 -0.92902,5.31831 -1.5268,7.92599 7.47168,-3.55543 8.90044,-14.45655 16.68624,-17.10341 -0.63535,-3.69183 -2.20382,-7.02494 -2.46582,-10.84608 -0.56484,-8.24343 1.06419,-16.39219 -0.22028,-24.61224 -1.40538,-8.99599 -5.32163,-17.05545 -8.5771,-25.446537 l 3.75438,1.668657 c 0.86475,-5.769702 5.61911,-8.888784 8.7603,-13.349036 -4.82278,1.754977 -12.23063,7.734512 -17.5206,4.58498 -3.64844,-2.172156 -4.97292,-6.952766 -8.76024,-8.75654 l -5.00592,20.023496 h -0.41712 c -2.20095,-9.245005 2.52545,-17.990713 4.58868,-26.698015 -6.35659,5.141918 -10.79639,11.630754 -19.60632,12.931859 l 12.09751,-8.79738 2.77579,-4.061863 -3.6101,-3.118668 -9.17742,-6.548519 4.17156,0.834312 1.66861,-13.349003 h -0.41713 c -0.94781,1.663407 -2.07119,3.181733 -3.37478,4.588716 -1.72414,1.860397 -3.98637,4.838597 -6.4601,5.688764 -4.8524,1.66821 -11.55482,-3.982716 -16.02883,-5.271608 v 19.18917 c -4.26164,-0.712059 -3.70808,-5.015029 -3.75273,-8.760259 -0.0989,-8.246178 -0.35583,-16.359621 -0.002,-24.612226 h -0.41717 c -1.24855,9.27418 -4.28878,22.490149 -13.34899,27.115162 2.59304,-4.163635 5.05925,-7.720729 6.43297,-12.514686 0.40502,-1.412702 1.59145,-3.826825 0.10262,-4.947641 -4.20411,-3.165343 -10.65166,-0.46067 -14.10575,-5.487697 -3.3944,-4.941087 -1.16676,-11.236271 -3.27591,-16.262673 z"
       id="yellow"
       inkscape:connector-curvature="0"
       style="fill:url(#m)" />
    <path
       d="m 385.28755,58.997436 -6.67446,30.035266 c 5.14142,-3.133672 6.2281,-14.556692 6.67446,-20.023516 h 0.41718 c 0.89354,4.809419 1.32741,9.627994 3.28426,14.183299 0.77511,1.804658 1.62649,4.207038 3.80738,4.17156 L 387.45556,68.59203 Z"
       id="tagg1"
       inkscape:connector-curvature="0" />
    <path
       d="m 344.40625,64.42047 c 0.0884,10.666248 5.36297,20.375572 3.33726,31.28675 2.00112,-1.223958 2.05826,-4.082311 2.08412,-6.257395 0.0601,-5.047143 -0.81888,-9.994204 -0.83264,-15.017583 h 0.41712 c 1.45258,5.041726 5.39342,15.067264 11.26326,15.851939 -0.7046,-2.710304 -2.92218,-4.761047 -4.40687,-7.091696 -3.29885,-5.178557 -6.5289,-15.62749 -11.86225,-18.772015 z"
       id="tagg2"
       inkscape:connector-curvature="0" />
    <path
       d="m 429.92329,69.009186 c -4.63793,7.28353 -10.1669,17.221476 -17.10342,22.526419 v 0.417178 c 5.25996,-0.938195 10.94373,-7.585137 12.51473,-12.51468 h 0.41713 c -0.0613,7.420398 -3.47238,15.287541 -0.41713,22.526457 h 0.41713 c 2.21968,-7.509261 1.06375,-16.367982 2.97434,-24.195115 0.59905,-2.454934 2.80746,-6.546408 1.19722,-8.760259 z"
       id="tagg3"
       inkscape:connector-curvature="0" />
    <path
       d="m 402.39097,85.695443 c -2.46289,5.556498 -3.66513,10.717979 -8.76025,14.600457 v 0.8343 c 3.66177,0.96406 6.21313,-3.631308 7.09165,-6.674459 h 0.41712 c 0.36214,2.803255 0.70294,8.631369 3.75444,9.594599 l -2.04826,-9.594599 z"
       id="tagg4"
       inkscape:connector-curvature="0" />
    <path
       d="m 313.11955,86.112621 c 0.90145,10.260791 14.70225,17.195599 12.9318,28.366619 2.21886,-1.29652 1.63567,-3.71437 0.89067,-5.84022 -1.54056,-4.39637 -4.11779,-8.24259 -5.89653,-12.514677 3.99179,3.643469 9.88993,7.762857 15.43482,5.423037 l -8.75406,-3.627165 z"
       id="tagg5"
       inkscape:connector-curvature="0" />
    <path
       d="m 370.68709,89.449825 c -1.26187,4.152383 -4.8031,12.258975 -3.33726,16.269115 h 0.83436 l 2.92008,-10.01172 h 0.41712 c 1.03082,3.7761 2.11043,9.50319 6.67452,10.01172 l -6.67452,-16.269115 z"
       id="tagg6"
       inkscape:connector-curvature="0" />
    <path
       d="m 342.73765,99.87878 2.08578,17.52054 h 0.8343 l -0.41718,-12.51468 c 2.72031,1.89391 6.40086,6.56311 10.01178,5.00586 -1.39373,-1.50928 -3.41192,-1.77415 -5.0042,-3.06315 -2.5889,-2.09579 -3.95427,-6.66828 -7.51048,-6.94857 z"
       id="tagg7"
       inkscape:connector-curvature="0" />
    <path
       d="m 434.51202,102.38168 c -4.40018,4.41267 -8.0757,7.44334 -14.18333,9.17748 v 0.8343 c 3.61302,1.03789 7.10755,-0.96654 10.01177,-2.92008 -0.47514,2.44908 -3.59837,8.86082 -1.25147,10.4289 l 4.00637,-12.09756 z"
       id="tagg8"
       inkscape:connector-curvature="0" />
    <path
       d="m 439.10076,129.49688 c 9.54453,-2.29854 19.98095,-3.65679 29.6181,-1.66866 -1.43545,-4.98331 -5.15606,-9.07646 -8.45619,-12.93186 -1.12841,-1.31818 -2.56634,-3.75687 -4.47733,-3.90165 -2.26306,-0.17187 -4.23831,2.01073 -5.83855,3.27177 -4.68589,3.69182 -8.72438,9.62422 -10.84603,15.2304 z"
       id="eyelid1"
       inkscape:connector-curvature="0"
       style="fill:url(#l)" />
    <path
       d="m 363.17827,111.97628 -2.5029,12.93186 c 2.09368,-1.58687 2.57966,-6.6507 2.92008,-9.17742 l 3.75438,4.17156 c -0.4384,-2.81204 -2.08075,-5.99457 -4.17156,-7.926 z"
       id="tagg9"
       inkscape:connector-curvature="0" />
    <path
       d="m 404.05962,113.22776 -7.92599,7.926 7.50882,-5.42304 1.25148,7.50882 c 1.45877,-2.13839 0.69415,-7.9969 -0.83431,-10.01178 m -88.43717,1.25148 v 0.41712 c 3.5162,3.54792 6.4092,8.43491 8.60429,12.93186 1.20849,2.47583 0.86558,5.20486 3.49327,6.67452 -0.20945,-4.87738 -2.29478,-8.5755 -4.17156,-12.93186 2.95468,1.72453 6.91563,4.30088 10.4289,3.33726 v -0.8343 c -4.73391,-2.10413 -8.39905,-3.89414 -12.51468,-7.17216 -1.75376,-1.39665 -3.54792,-3.20253 -5.84022,-2.42244 z"
       id="tagg10"
       inkscape:connector-curvature="0" />
    <path
       d="m 287.67301,118.23362 c 0.3917,3.51791 3.27089,4.83112 5.84016,6.77421 3.52582,2.66648 6.80218,5.55402 9.49618,9.07773 1.75454,2.29523 2.83619,6.2632 5.10428,7.926 -0.48808,-6.13344 -4.1069,-13.35191 -10.01172,-15.85194 v -0.41718 c 6.00452,1.16428 11.98278,3.3965 17.93772,0.8343 v -0.8343 l -7.0917,-0.27908 z"
       id="tagg11"
       inkscape:connector-curvature="0" />
    <path
       d="m 481.65072,119.4851 0.8343,10.01178 9.17742,1.25142 c -1.53636,-4.05225 -5.91902,-9.67677 -10.01172,-11.2632 z"
       id="eyelid2"
       inkscape:connector-curvature="0"
       style="fill:url(#k)" />
    <path
       d="m 380.69887,119.90228 -3.75444,7.09164 4.17156,-4.58874 2.50296,4.17156 z"
       id="tagg12"
       inkscape:connector-curvature="0" />
    <path
       d="m 420.74587,129.914 -7.09165,5.42304 6.25734,-3.33726 -0.8343,5.00592 c 1.77416,-1.23772 2.43576,-5.12606 1.66861,-7.0917 z"
       id="tagg13"
       inkscape:connector-curvature="0" />
    <path
       d="m 462.46152,154.94342 c 3.16412,-1.50763 4.6792,-5.11269 5.53356,-8.34312 1.05204,-3.97593 2.41786,-14.45993 -2.63144,-16.43474 -2.77783,-1.08625 -7.41786,0.16562 -10.41094,0.16562 -2.7103,0 -8.49249,-0.41342 -10.59452,1.6077 -1.93939,1.86512 -0.48935,8.89796 0.93902,10.79225 1.48342,1.96818 5.01377,2.35817 7.15254,3.36103 4.26418,1.99901 7.69489,4.69467 10.01178,8.85126 z"
       id="eye1"
       inkscape:connector-curvature="0"
       style="fill:#ffffff" />
    <path
       d="m 481.65072,132.41696 v 3.75438 c 7.56386,-2.73567 9.27794,8.33063 1.25142,7.926 l 1.66866,9.5946 c 5.58988,-2.60851 8.16418,-15.18741 3.57378,-19.89087 -1.38455,-1.41876 -4.61836,-1.23601 -6.49386,-1.38411 z"
       id="eye2"
       inkscape:connector-curvature="0"
       style="fill:#ffffff" />
    <path
       d="m 460.37574,134.08556 c -0.85475,0.87857 -2.10081,1.5168 -2.72948,2.59182 -4.40891,7.538 12.25395,7.73363 7.54551,-0.41801 -0.53604,-0.92775 -1.48673,-1.5326 -2.31313,-2.17381 l -2.5029,1.25148 z"
       id="pupil1"
       inkscape:connector-curvature="0" />
    <path
       d="m 460.79286,134.08556 v 0.41718 h 1.66866 z"
       id="pupil2"
       inkscape:connector-curvature="0"
       style="fill:#020202" />
    <path
       d="m 463.29582,134.50274 0.41712,0.41718 z"
       id="pupil3"
       inkscape:connector-curvature="0"
       style="fill:#020202" />
    <path
       d="m 458.70708,134.91992 0.41718,0.41712 z"
       id="path451"
       inkscape:connector-curvature="0"
       style="fill:#010101" />
    <path
       d="m 464.13012,134.91992 0.41718,0.41712 z"
       id="path453"
       inkscape:connector-curvature="0"
       style="fill:#050505" />
    <path
       d="m 458.28996,135.33704 0.41712,0.41718 z"
       id="path457"
       inkscape:connector-curvature="0"
       style="fill:#010101" />
    <path
       d="m 482.90214,135.33704 1.25148,0.8343 v -0.41712 z"
       id="path459"
       inkscape:connector-curvature="0"
       style="fill:#020202" />
    <path
       d="m 483.31932,135.33704 0.41718,0.41718 z"
       id="path461"
       inkscape:connector-curvature="0"
       style="fill:#050505" />
    <path
       d="m 483.7365,135.33704 0.41712,0.41718 z"
       id="path463"
       inkscape:connector-curvature="0"
       style="fill:#010101" />
    <path
       d="m 484.5708,135.33704 0.41712,0.41718 z"
       id="path465"
       inkscape:connector-curvature="0"
       style="fill:#020202" />
    <path
       d="m 484.98792,135.33704 0.41718,0.41718 z"
       id="path467"
       inkscape:connector-curvature="0"
       style="fill:#010101" />
    <path
       d="m 372.77287,135.75422 c 0,2.12413 -0.40961,4.27711 1.66866,5.42304 v -4.17156 l 5.00586,1.6686 z"
       id="tagg14"
       inkscape:connector-curvature="0" />
    <path
       d="m 482.06784,135.75422 0.41718,0.41712 z"
       id="path475"
       inkscape:connector-curvature="0"
       style="fill:#020202" />
    <path
       d="m 482.48502,135.75422 0.8343,0.8343 v -0.8343 z m 2.08578,0 0.41712,0.41712 z"
       id="path477"
       inkscape:connector-curvature="0"
       style="fill:#010101" />
    <path
       d="m 481.23354,136.17134 0.41718,0.41718 z"
       id="path485"
       inkscape:connector-curvature="0"
       style="fill:#050505" />
    <path
       d="m 398.21941,141.59438 2.08578,-3.75438 2.50296,1.6686 c -1.8334,-4.90655 -4.55995,-1.39245 -4.58874,2.08578 z"
       id="tagg15"
       inkscape:connector-curvature="0" />
    <path
       d="m 347.74351,137.0057 c 0.73709,2.69311 1.89347,4.99293 4.17156,6.67446 l -2.50296,-5.42304 5.00592,0.41718 c -1.29238,-2.34402 -4.31967,-1.6686 -6.67452,-1.6686 z"
       id="tagg16"
       inkscape:connector-curvature="0" />
    <path
       d="m 480.39924,137.0057 0.41712,0.41712 z"
       id="path495"
       inkscape:connector-curvature="0"
       style="fill:#ffffff" />
    <path
       d="m 479.98206,137.42282 0.41718,0.41718 z"
       id="path501"
       inkscape:connector-curvature="0"
       style="fill:#ffffff" />
    <path
       d="m 326.46853,139.5086 5.84016,7.0917 -3.3372,-5.84022 5.00586,-0.8343 -0.41718,-1.66866 z"
       id="path505"
       inkscape:connector-curvature="0" />
    <path
       d="m 348.16063,138.6743 0.41718,0.41718 z"
       id="path513"
       inkscape:connector-curvature="0"
       style="fill:#0e0d08" />
    <path
       d="m 479.56488,139.5086 0.41718,0.41718 z"
       id="path515"
       inkscape:connector-curvature="0"
       style="fill:#050505" />
    <path
       d="m 479.56488,139.92578 v 1.25148 h 0.41718 z"
       id="path519"
       inkscape:connector-curvature="0"
       style="fill:#ffffff" />
    <path
       d="m 457.87278,141.17726 0.41718,0.41712 z"
       id="path525"
       inkscape:connector-curvature="0"
       style="fill:#050505" />
    <path
       d="m 273.48967,141.59438 0.41718,0.41718 z"
       id="path527"
       inkscape:connector-curvature="0"
       style="fill:#0f0e08" />
    <path
       d="m 479.98206,141.59438 0.41718,0.41718 z"
       id="path529"
       inkscape:connector-curvature="0"
       style="fill:#ffffff" />
    <path
       d="m 463.71294,142.01156 0.41718,0.41712 z"
       id="path531"
       inkscape:connector-curvature="0"
       style="fill:#010101" />
    <path
       d="m 479.98206,142.01156 0.41718,0.41712 z"
       id="path533"
       inkscape:connector-curvature="0"
       style="fill:#050505" />
    <path
       d="m 459.54138,142.42868 0.41718,0.41718 z"
       id="path535"
       inkscape:connector-curvature="0"
       style="fill:#020202" />
    <path
       d="m 459.95856,142.42868 0.41718,0.41718 z m 2.78121,0.13893 0.2778,0.13932 z"
       id="path537"
       inkscape:connector-curvature="0"
       style="fill:#010101" />
    <path
       d="m 480.39924,142.42868 0.41712,0.41718 z"
       id="path539"
       inkscape:connector-curvature="0"
       style="fill:#ffffff" />
    <path
       d="m 487.21263,142.70693 0.13932,0.27786 z"
       id="path541"
       inkscape:connector-curvature="0"
       style="fill:#010101" />
    <path
       d="m 487.49088,142.42868 0.41718,0.41718 z"
       id="path543"
       inkscape:connector-curvature="0"
       style="fill:#050505" />
    <path
       d="m 461.21004,142.84586 0.41712,0.41718 z"
       id="path547"
       inkscape:connector-curvature="0"
       style="fill:#050505" />
    <path
       d="m 480.81636,142.84586 0.41718,0.41718 z"
       id="path549"
       inkscape:connector-curvature="0"
       style="fill:#ffffff" />
    <path
       d="m 284.33575,151.18898 v 0.8343 l 12.0975,4.17156 c -0.24608,-3.17037 -4.34591,-4.11608 -7.09164,-4.58868 l 8.34312,-7.50882 c -4.43394,-0.52019 -9.75563,4.8824 -13.34898,7.09164 z"
       id="tagg17"
       inkscape:connector-curvature="0" />
    <path
       d="m 482.48502,143.68016 0.41712,0.41718 z"
       id="path563"
       inkscape:connector-curvature="0"
       style="fill:#020202" />
    <path
       d="m 301.85629,149.52038 v 0.8343 l 9.17748,3.29763 5.42298,3.79401 c -0.59357,-4.43019 -5.29455,-5.1748 -8.34312,-7.50882 3.87541,-0.73002 9.13493,-0.79175 10.84608,-5.00586 z"
       id="tagg18"
       inkscape:connector-curvature="0" />
    <path
       d="m 483.31932,148.68608 0.41718,0.41712 z"
       id="path587"
       inkscape:connector-curvature="0"
       style="fill:#010101" />
    <path
       d="m 360.67537,152.44046 1.25142,-2.92008 c -1.77537,0.28322 -3.17329,1.65528 -1.25142,2.92008 z"
       id="tagg19"
       inkscape:connector-curvature="0" />
    <path
       d="m 425.75173,156.61202 v 5.00586 c 1.56686,-1.53426 1.56686,-3.47155 0,-5.00586 z"
       id="tagg201"
       inkscape:connector-curvature="0" />
    <path
       d="m 343.57195,164.95514 5.00586,1.25148 -2.77745,-2.67731 1.52597,-3.99721 c -2.01151,1.04247 -3.2442,3.25094 -3.75438,5.42304 z"
       id="tagg202"
       inkscape:connector-curvature="0" />
    <path
       d="m 268.06664,168.70958 c 0.54063,3.11195 3.62633,1.44086 5.84021,1.28938 3.1812,-0.21773 9.089,0.81264 10.84603,3.71648 l 2.92013,-0.41718 c -0.74632,-4.72137 -7.55308,-4.71303 -11.26325,-5.00586 2.73152,-2.76115 6.64445,-3.58296 7.50881,-7.92594 z"
       id="tagg203"
       inkscape:connector-curvature="0" />
    <path
       d="m 364.42975,163.70366 -4.58874,5.84022 5.84022,2.08578 -4.17156,-2.50296 c 0.86812,-1.82129 4.27584,-3.4023 2.92008,-5.42304 z"
       id="tagg204"
       inkscape:connector-curvature="0" />
    <path
       d="m 328.13713,164.95514 -5.00586,4.58874 c 1.95354,0.65994 6.4659,3.23005 7.926,1.25148 l -5.42304,-2.08578 z m 108.0435,0 5.84021,4.58874 v 0.8343 l -5.42304,2.92008 c 2.85421,-0.23315 5.28831,-1.10001 7.50882,-2.92008 -1.62273,-2.74783 -4.79022,-4.81858 -7.92599,-5.42304 z"
       id="tagg205"
       inkscape:connector-curvature="0" />
    <path
       d="m 302.27347,166.6238 c -2.52506,5.6616 -6.41462,10.27162 -10.84608,14.59421 -2.54341,2.48124 -6.50889,4.78686 -7.50882,8.34937 l 18.3549,-3.8958 9.5946,-1.94442 c -5.72007,-4.07557 -15.75269,0.46056 -21.27498,2.92013 3.79362,-7.61602 11.24193,-10.63624 12.93186,-19.60637 l -0.41718,-0.41712 z"
       id="tagg20"
       inkscape:connector-curvature="0" />
    <path
       d="m 378.61309,170.79536 2.5029,0.41712 v -4.17156 c -1.81046,0.58656 -2.01654,2.04698 -2.5029,3.75444 z"
       id="tagg206"
       inkscape:connector-curvature="0" />
    <path
       d="m 398.21941,169.961 0.41718,4.58874 c 1.93474,-1.02496 3.1996,-2.45577 3.75438,-4.58874 l -2.92008,2.08583 z"
       id="tagg21"
       inkscape:connector-curvature="0" />
    <path
       d="m 339.40039,178.7213 0.8343,-2.92008 c -1.79001,0.52101 -2.77286,1.81046 -0.8343,2.92008 z"
       id="tagg22"
       inkscape:connector-curvature="0" />
    <path
       d="m 476.6448,176.63552 0.41718,0.41718 z"
       id="path781"
       inkscape:connector-curvature="0"
       style="fill:#0e0d05" />
    <path
       d="m 295.18178,177.0527 0.41717,0.41712 z"
       id="path783"
       inkscape:connector-curvature="0"
       style="fill:#0e0d08" />
    <path
       d="m 492.07962,177.0527 0.41712,0.41712 z m -17.5206,0.41712 0.41718,0.41718 z"
       id="path785"
       inkscape:connector-curvature="0"
       style="fill:#010101" />
    <path
       d="m 491.66244,177.46982 0.41718,0.41718 z"
       id="path787"
       inkscape:connector-curvature="0"
       style="fill:#0e0d05" />
    <path
       d="m 414.07135,178.30417 -0.41713,5.84017 -3.75443,-2.50296 c 0.3917,2.53131 2.16132,3.73189 4.58873,4.17161 l 0.41718,-7.50882 z"
       id="path789"
       inkscape:connector-curvature="0" />
    <path
       d="m 311.03377,191.23598 c 2.7607,-0.11843 12.37619,0.25117 13.76616,-1.6686 l -9.17748,-1.25148 5.00586,-9.5946 c -3.03519,0.94902 -8.2463,9.57166 -9.59454,12.51468 m 33.78966,36.29261 c 3.14616,-1.80294 7.24306,-7.17464 8.76024,-10.4289 -3.33974,1.00037 -4.79979,4.27292 -7.09164,6.67452 l -1.25148,-8.7603 c 9.75602,-0.85182 14.04192,-11.51144 19.78493,-17.92147 3.49492,-3.90038 7.87339,-5.59032 12.33613,-7.94224 -2.63018,-3.14699 -6.28906,0.17855 -8.7603,2.08119 -6.62108,5.09848 -10.44183,11.27702 -16.26906,17.10801 l 3.3372,-8.76025 h -0.41712 c -1.81212,4.3526 -3.97842,8.99887 -8.34312,11.2632 l 1.6686,-5.84021 h -0.41718 c -1.7537,4.18996 -3.73183,6.25446 -8.34312,6.25739 l 4.17156,-9.5946 h -0.41712 l -5.42304,9.17742 -1.6686,-0.41717 4.17156,-7.92595 h -0.41718 c -2.10916,3.37523 -4.33298,8.17584 -8.7603,7.09164 l 3.75444,-7.09164 c -2.08998,1.63606 -2.99563,5.5486 -5.46183,6.521 -1.12548,0.44343 -3.2463,-0.38087 -2.79497,-1.86931 0.5865,-1.93392 3.76941,-3.83866 5.02426,-5.48599 4.27209,-5.60993 7.73573,-14.75608 14.07856,-18.20762 5.19365,-2.82624 13.09665,0.75505 18.77208,0.68537 3.25171,-0.0401 6.95442,-1.1551 7.92594,-4.58708 -2.65228,-0.28615 -5.15977,1.42589 -7.92594,1.43047 -7.01118,0.0112 -18.51676,-3.48077 -24.54134,1.27856 -5.48477,4.3326 -5.79595,10.14651 -9.24545,15.64421 -1.68446,2.68438 -4.66047,4.5007 -7.09247,6.43589 -0.90106,0.71709 -2.53296,1.75957 -2.19133,3.13284 0.41967,1.68988 3.29554,2.59636 4.69219,3.23586 3.16285,1.44838 6.60152,2.58098 10.01178,3.27846 1.82251,0.37291 4.5353,0.31328 6.08254,1.43417 2.82498,2.04699 1.87136,9.02186 2.26058,12.10253 z"
       id="path793"
       inkscape:connector-curvature="0" />
    <path
       d="m 509.18304,183.72716 -2.2293,10.42895 -1.58062,5.40464 2.97556,2.10418 -0.8343,-3.75443 h 0.41718 c 1.92933,4.63294 3.96211,5.42303 8.76024,5.42303 l -2.92008,-6.25734 c 1.92392,2.21383 2.62144,5.34208 5.84022,5.84017 l -2.92014,-5.42299 c 2.66985,2.89798 3.98848,4.89904 7.926,2.92008 v -0.8343 c -6.95067,-3.30725 -7.58182,-14.42947 -15.43476,-15.85199 z"
       id="path827"
       inkscape:connector-curvature="0"
       style="fill:url(#h)" />
    <path
       d="m 315.62245,184.56151 0.41718,0.41713 z"
       id="path831"
       inkscape:connector-curvature="0"
       style="fill:#0e0d08" />
    <path
       d="m 481.23354,184.56151 0.41718,0.41713 z"
       id="path833"
       inkscape:connector-curvature="0"
       style="fill:#0e0d05" />
    <path
       d="m 343.15477,184.97864 0.41718,0.41718 z"
       id="path835"
       inkscape:connector-curvature="0"
       style="fill:#0f0e08" />
    <path
       d="m 465.3816,184.97864 0.41712,0.41718 z"
       id="path837"
       inkscape:connector-curvature="0"
       style="fill:#010101" />
    <path
       d="m 504.5943,184.97864 0.41712,0.41718 z"
       id="path839"
       inkscape:connector-curvature="0"
       style="fill:#0d0b05" />
    <path
       d="m 316.03963,186.23012 0.41712,0.41717 z m 20.0235,0 0.41718,0.41717 z"
       id="path845"
       inkscape:connector-curvature="0"
       style="fill:#0e0d08" />
    <path
       d="m 273.90685,186.64729 0.41713,0.41713 z"
       id="path847"
       inkscape:connector-curvature="0"
       style="fill:#0f0e08" />
    <path
       d="m 455.787,186.64729 0.41718,0.41713 z"
       id="path849"
       inkscape:connector-curvature="0"
       style="fill:#0f0e07" />
    <path
       d="m 483.31932,186.64729 0.41718,0.41713 z"
       id="path851"
       inkscape:connector-curvature="0"
       style="fill:#010101" />
    <path
       d="m 273.48967,187.4816 0.41718,0.41717 z"
       id="path853"
       inkscape:connector-curvature="0"
       style="fill:#0f0e08" />
    <path
       d="m 341.06899,187.4816 0.41718,0.41717 z"
       id="path855"
       inkscape:connector-curvature="0"
       style="fill:#0f0e07" />
    <path
       d="m 386.12191,187.4816 4.58868,5.00586 2.08578,-5.00586 -2.08578,3.33725 z m 42.13277,0 -0.41717,6.25734 -4.17156,-2.50296 c -0.23233,2.75031 3.97968,5.87608 6.25734,7.09169 l -0.8343,-10.84607 z"
       id="path857"
       inkscape:connector-curvature="0" />
    <path
       d="m 454.53552,188.73307 0.41718,0.41713 z"
       id="path861"
       inkscape:connector-curvature="0"
       style="fill:#0f0e07" />
    <path
       d="m 248.04313,189.56738 0.41716,0.41717 z"
       id="path863"
       inkscape:connector-curvature="0"
       style="fill:#0f0d06" />
    <path
       d="m 274.32398,189.98455 0.41717,0.41713 z"
       id="path865"
       inkscape:connector-curvature="0"
       style="fill:#0f0e08" />
    <path
       d="m 311.03377,189.98455 0.41712,0.41713 z"
       id="path867"
       inkscape:connector-curvature="0"
       style="fill:#0e0d08" />
    <path
       d="m 369.85279,189.98455 0.41718,0.41713 z"
       id="path869"
       inkscape:connector-curvature="0"
       style="fill:#0f0d06" />
    <path
       d="m 453.70122,189.98455 0.41718,0.41713 z m 2.92008,0.41713 0.41718,0.41717 z"
       id="path871"
       inkscape:connector-curvature="0"
       style="fill:#0f0e07" />
    <path
       d="m 388.62481,190.81885 0.41718,0.41713 z m 128.06699,0 0.41718,0.41713 z m -183.13163,0.41713 0.41718,0.41718 z"
       id="path873"
       inkscape:connector-curvature="0"
       style="fill:#0e0d08" />
    <path
       d="m 452.86692,191.23598 0.41712,0.41718 z"
       id="path875"
       inkscape:connector-curvature="0"
       style="fill:#0f0e07" />
    <path
       d="m 244.28873,191.65316 0.41715,0.41717 z m 123.47828,0 0.41718,0.41717 z"
       id="path877"
       inkscape:connector-curvature="0"
       style="fill:#0f0d06" />
    <path
       d="m 371.10427,191.65316 0.41712,0.41717 z"
       id="path879"
       inkscape:connector-curvature="0"
       style="fill:#0e0d08" />
    <path
       d="m 243.03726,192.07033 0.41715,0.41713 z"
       id="path881"
       inkscape:connector-curvature="0"
       style="fill:#0f0d06" />
    <path
       d="m 389.45916,192.07033 0.41713,0.41713 z m 35.87544,0 0.41713,0.41713 z"
       id="path883"
       inkscape:connector-curvature="0"
       style="fill:#0e0d08" />
    <path
       d="m 454.9527,192.90463 0.41712,0.41713 z"
       id="path885"
       inkscape:connector-curvature="0"
       style="fill:#0f0e07" />
    <path
       d="m 368.18419,193.73894 0.41712,0.41717 z"
       id="path887"
       inkscape:connector-curvature="0"
       style="fill:#0e0d08" />
    <path
       d="m 243.03726,194.15611 0.41715,0.41713 z"
       id="path889"
       inkscape:connector-curvature="0"
       style="fill:#0f0d06" />
    <path
       d="m 467.88456,194.15611 0.41712,0.41713 z m -178.12577,0.41713 0.41712,0.41717 z"
       id="path891"
       inkscape:connector-curvature="0"
       style="fill:#0e0d08" />
    <path
       d="m 315.20533,194.57324 c -1.30696,6.24899 -5.77307,11.87435 -9.77608,16.68629 -1.90767,2.29307 -4.84195,4.5983 -5.65874,7.50877 6.91315,-1.99151 14.68474,-9.01429 22.10928,-8.34312 -1.90971,-3.69934 -10.81767,1.43296 -14.18328,2.08578 2.70605,-4.01009 6.40583,-7.50379 8.14788,-12.09751 0.73129,-1.92728 1.19224,-4.51949 -0.63906,-5.84021 z"
       id="path893"
       inkscape:connector-curvature="0" />
    <path
       d="m 336.48031,194.57324 0.41712,0.41717 z"
       id="path895"
       inkscape:connector-curvature="0"
       style="fill:#0f0e07" />
    <path
       d="m 363.59545,194.57324 0.41718,0.41717 z"
       id="path897"
       inkscape:connector-curvature="0"
       style="fill:#0e0d08" />
    <path
       d="m 248.04313,194.99041 0.41716,0.41713 z m 1.66863,0 0.41716,0.41713 z"
       id="path899"
       inkscape:connector-curvature="0"
       style="fill:#0f0d06" />
    <path
       d="m 314.78815,195.40754 0.41718,0.41718 z"
       id="path901"
       inkscape:connector-curvature="0"
       style="fill:#0e0d08" />
    <path
       d="m 449.52966,195.40754 0.41713,0.41718 z"
       id="path903"
       inkscape:connector-curvature="0"
       style="fill:#0f0e07" />
    <path
       d="m 468.30168,195.82472 0.41718,0.41717 z m 24.19506,0.41717 0.41718,0.41713 z"
       id="path905"
       inkscape:connector-curvature="0"
       style="fill:#010101" />
    <path
       d="m 520.02906,196.24189 0.41718,0.41713 z"
       id="path907"
       inkscape:connector-curvature="0"
       style="fill:#0f0e08" />
    <path
       d="m 364.84693,196.65902 0.41712,0.41717 z"
       id="path909"
       inkscape:connector-curvature="0"
       style="fill:#0e0d08" />
    <path
       d="m 275.99263,197.07619 0.41713,0.41718 z"
       id="path911"
       inkscape:connector-curvature="0"
       style="fill:#0f0e08" />
    <path
       d="m 246.37451,197.49337 0.41715,0.41713 z"
       id="path913"
       inkscape:connector-curvature="0"
       style="fill:#0f0d06" />
    <path
       d="m 360.67537,197.49337 0.41712,0.41713 z"
       id="path915"
       inkscape:connector-curvature="0"
       style="fill:#0e0d08" />
    <path
       d="m 245.95735,197.9105 0.41716,0.41717 z"
       id="path917"
       inkscape:connector-curvature="0"
       style="fill:#0f0d06" />
    <path
       d="m 428.67186,197.9105 0.41713,0.41717 z"
       id="path919"
       inkscape:connector-curvature="0"
       style="fill:#0e0d08" />
    <path
       d="m 408.23118,204.58501 c -1.76459,-1.76 -3.56168,-4.19073 -6.25734,-3.75443 l 7.92595,9.5946 2.08578,-12.09751 c -3.17871,0.50267 -3.02354,3.65679 -3.75439,6.25734 z"
       id="path921"
       inkscape:connector-curvature="0" />
    <path
       d="m 515.0232,198.32767 0.41718,0.41713 z"
       id="path923"
       inkscape:connector-curvature="0"
       style="fill:#0f0e07" />
    <path
       d="m 270.98672,198.7448 0.41717,0.41717 z m 8.76029,0 0.41718,0.41717 z"
       id="path925"
       inkscape:connector-curvature="0"
       style="fill:#0f0e08" />
    <path
       d="m 369.01849,202.49923 -0.41718,-2.08578 h -1.25148 l 0.41718,5.42304 c 2.42951,-0.42049 4.95833,-4.78939 5.42304,-7.09169 z"
       id="path927"
       inkscape:connector-curvature="0" />
    <path
       d="m 492.07962,198.7448 0.41712,0.41717 z"
       id="path929"
       inkscape:connector-curvature="0"
       style="fill:#010101" />
    <path
       d="m 286.83866,199.16197 0.41717,0.41718 z m 72.58523,0 0.41712,0.41718 z m 3.33726,0 0.41712,0.41718 z m 49.22442,0 0.41717,0.41718 z"
       id="path931"
       inkscape:connector-curvature="0"
       style="fill:#0e0d08" />
    <path
       d="m 450.36396,199.16197 0.41718,0.41718 z"
       id="path933"
       inkscape:connector-curvature="0"
       style="fill:#0f0e07" />
    <path
       d="m 524.6178,199.57915 0.41718,0.41713 z"
       id="path935"
       inkscape:connector-curvature="0"
       style="fill:#0d0b05" />
    <path
       d="m 328.97149,199.99628 0.41712,0.41717 z"
       id="path937"
       inkscape:connector-curvature="0"
       style="fill:#0e0d08" />
    <path
       d="m 505.01142,199.99628 0.41718,0.41717 z"
       id="path939"
       inkscape:connector-curvature="0"
       style="fill:#0e0b05" />
    <path
       d="m 290.17591,200.41345 0.41718,0.41713 z m 22.52646,0 0.41718,0.41713 z"
       id="path941"
       inkscape:connector-curvature="0"
       style="fill:#0e0d08" />
    <path
       d="m 344.128,200.6917 0.13932,0.27781 z"
       id="path943"
       inkscape:connector-curvature="0" />
    <path
       d="m 448.69536,200.83058 0.41712,0.41717 z"
       id="path945"
       inkscape:connector-curvature="0"
       style="fill:#0f0e07" />
    <path
       d="m 494.9997,200.83058 0.41718,0.41717 z m 12.93186,0 0.41712,0.41717 z"
       id="path947"
       inkscape:connector-curvature="0"
       style="fill:#0d0b05" />
    <path
       d="m 494.58252,202.08206 0.41718,0.41717 z"
       id="path951"
       inkscape:connector-curvature="0"
       style="fill:#0d0b05" />
    <path
       d="m 517.10898,202.08206 0.41718,0.41717 z"
       id="path953"
       inkscape:connector-curvature="0"
       style="fill:#0f0d06" />
    <path
       d="m 253.88332,202.49923 0.41716,0.41713 z"
       id="path955"
       inkscape:connector-curvature="0" />
    <path
       d="m 326.05135,202.49923 0.41718,0.41713 z"
       id="path957"
       inkscape:connector-curvature="0"
       style="fill:#0e0d08" />
    <path
       d="m 445.3581,202.49923 0.41713,0.41713 z"
       id="path959"
       inkscape:connector-curvature="0"
       style="fill:#0f0e07" />
    <path
       d="m 253.04901,202.91636 0.41715,0.41717 z m 0.83431,0 0.41716,0.41717 z"
       id="path961"
       inkscape:connector-curvature="0"
       style="fill:#0f0d06" />
    <path
       d="m 339.81751,202.91636 0.41718,0.41717 z"
       id="path963"
       inkscape:connector-curvature="0"
       style="fill:#0f0e08" />
    <path
       d="m 356.92093,202.91636 0.41718,0.41717 z m 133.49003,0 0.41718,0.41717 z m -82.17978,0.83435 0.41713,0.41713 z m 63.40776,0 0.41718,0.41713 z"
       id="path965"
       inkscape:connector-curvature="0"
       style="fill:#0e0d08" />
    <path
       d="m 260.97499,204.16784 0.41713,0.41717 z"
       id="path967"
       inkscape:connector-curvature="0"
       style="fill:#0f0e07" />
    <path
       d="m 355.66945,204.58501 0.41718,0.41713 z m 54.23034,0 0.41717,0.41713 z"
       id="path969"
       inkscape:connector-curvature="0"
       style="fill:#0e0d08" />
    <path
       d="m 287.25583,205.00214 0.41718,0.41717 z"
       id="path971"
       inkscape:connector-curvature="0"
       style="fill:#0f0e08" />
    <path
       d="m 332.72587,205.00214 0.41718,0.41717 z"
       id="path973"
       inkscape:connector-curvature="0"
       style="fill:#0e0b05" />
    <path
       d="m 338.14891,205.00214 0.41718,0.41717 z"
       id="path975"
       inkscape:connector-curvature="0"
       style="fill:#0e0d08" />
    <path
       d="m 341.90329,205.00214 0.41718,0.41717 z"
       id="path977"
       inkscape:connector-curvature="0"
       style="fill:#0f0e08" />
    <path
       d="m 358.58959,205.00214 0.41712,0.41717 z"
       id="path979"
       inkscape:connector-curvature="0"
       style="fill:#0e0d08" />
    <path
       d="m 496.25118,205.00214 0.41712,0.41717 z"
       id="path981"
       inkscape:connector-curvature="0"
       style="fill:#0d0b05" />
    <path
       d="m 384.45325,205.41931 -2.08578,5.42304 h -0.41712 l -3.33726,-4.58873 2.92008,9.59459 h 0.41718 c 1.10962,-2.78745 5.03841,-7.91472 2.5029,-10.4289 z"
       id="tagg102"
       inkscape:connector-curvature="0" />
    <path
       d="m 429.50616,208.3394 2.50291,13.76615 c -2.65891,-2.32313 -10.85984,-13.02735 -14.18329,-9.17742 7.674,2.44538 10.87233,11.41175 17.52055,15.43476 l -2.07993,-7.92594 -2.50876,-12.51468 z"
       id="tagg103"
       inkscape:connector-curvature="0" />
    <path
       d="m 451.61544,211.25953 c -2.11247,5.17149 3.0436,10.7213 5.00586,15.43476 -5.42386,-2.79535 -10.23907,-7.4546 -16.68624,-7.50882 v 1.66861 c 9.28883,0.81098 14.24253,10.31505 21.6921,14.60051 -0.0696,-7.77496 -6.74332,-16.71464 -9.17742,-24.19506 z"
       id="tagg101"
       inkscape:connector-curvature="0" />
    <path
       d="m 366.93271,217.51687 -2.92008,0.41712 c 0.98406,2.33944 2.72025,4.22998 3.5362,6.67452 0.90399,2.70859 0.31749,6.4459 3.13826,7.92594 1.30652,-2.93339 4.51739,-7.71483 3.75444,-10.84602 -2.36989,1.16549 -3.49288,3.70227 -3.75444,6.25734 h -0.41712 z"
       id="tagg100"
       inkscape:connector-curvature="0" />
    <path
       d="m 328.13713,217.93399 c 0,8.18673 -1.11376,15.88411 -3.3372,23.77794 2.90256,0.10638 4.42306,-2.91218 5.99578,-5.00586 3.10615,-4.13448 6.22103,-8.69315 11.10758,-10.84608 v -0.41718 c -4.9554,-0.6416 -11.14892,6.76753 -12.9318,10.84608 h -0.41718 c 1.46883,-5.67752 2.77574,-12.77458 0.41718,-18.3549 z"
       id="tagg104"
       inkscape:connector-curvature="0" />
    <path
       d="m 399.05371,227.11147 -9.59455,-6.67452 c 0.53395,1.7074 1.88927,2.21593 3.15412,3.38855 2.48876,2.30854 4.66213,7.70903 8.10909,8.29183 l 0.8343,-13.76616 c -3.36688,1.28398 -2.50296,5.80303 -2.50296,8.7603 z"
       id="tagg105"
       inkscape:connector-curvature="0" />
    <path
       d="m 422.83165,226.27711 c -2.9418,5.21531 1.34575,15.9617 2.08578,21.69216 h -0.41718 c -2.32479,-4.91119 -6.80378,-8.9672 -10.4289,-12.93186 -0.51102,-0.55898 -3.15329,-4.15818 -4.09856,-2.64393 -0.98489,1.57852 3.8433,5.32373 4.74977,6.39837 3.33389,3.95128 6.34493,8.42027 8.86917,12.9318 1.45877,2.60768 2.73025,6.09509 5.49726,7.50882 -2.08706,-10.76097 -5.39259,-21.93658 -5.42304,-32.95536 z"
       id="tagg106"
       inkscape:connector-curvature="0" />
    <path
       d="m 283.91857,230.44867 -4.58873,12.93186 9.5946,-6.67446 c -0.16767,-3.2238 -1.91392,-5.33882 -5.00587,-6.2574 z"
       id="gult100"
       inkscape:connector-curvature="0"
       style="fill:url(#g)" />
    <path
       d="m 353.16655,233.78593 -0.41718,0.41718 c 2.04113,5.60701 4.0502,10.25289 5.03924,16.26912 0.45973,2.79452 0.17441,6.43125 2.46958,8.34312 2.34524,-4.45064 3.18998,-9.61466 5.33208,-14.18334 1.22937,-2.62266 3.2359,-4.92534 2.59392,-7.92594 -4.00931,1.97227 -6.37627,10.87647 -7.50882,15.01758 -2.06909,-5.51477 -1.43628,-15.09771 -7.50882,-17.93772 z"
       id="tagg107"
       inkscape:connector-curvature="0" />
    <path
       d="m 381.53317,237.95749 c 4.71678,9.36808 8.20922,18.17883 10.84608,28.36668 2.9418,-1.64904 2.53711,-4.56122 2.50461,-7.50882 -0.0759,-6.86473 2.56049,-13.69946 2.08407,-20.44068 -1.96896,0.67454 -2.32059,2.69152 -2.66311,4.58874 -0.82264,4.55199 -0.83806,9.25087 -1.92557,13.76616 -2.26185,-5.25576 -4.05562,-17.68451 -10.84608,-18.77208 z"
       id="tagg108"
       inkscape:connector-curvature="0" />
    <path
       d="m 469.55316,241.29475 -2.92008,5.00586 9.17742,4.17162 z"
       id="gult102"
       inkscape:connector-curvature="0"
       style="fill:url(#f)" />
    <path
       d="m 318.95971,260.06677 -0.8343,12.93186 c 3.6664,-3.91542 9.77979,-12.14508 0.8343,-12.93186 z"
       id="gult4"
       inkscape:connector-curvature="0"
       style="fill:url(#e)" />
    <path
       d="m 429.08899,272.58151 c 1.60687,3.45027 5.25283,7.00068 8.34312,9.17742 l -3.75439,-11.68038 z"
       id="gult1"
       inkscape:connector-curvature="0"
       style="fill:url(#d)" />
    <path
       d="m 358.17241,290.51923 h 0.41718 l 3.75438,-13.34904 -4.74806,-0.80595 -0.2578,3.72609 z"
       id="gult2"
       inkscape:connector-curvature="0"
       style="fill:url(#c)" />
    <path
       d="m 392.79637,279.67315 4.58874,13.34898 c 1.02998,-2.38652 4.20825,-11.60191 1.9527,-13.5146 -1.74536,-1.48005 -4.64709,-0.33539 -6.54144,0.16562 z"
       id="gult3"
       inkscape:connector-curvature="0"
       style="fill:url(#b)" />
    <path
       d="m 467.06027,176.99625 c -1.65006,-0.30031 -2.94117,-1.52797 -2.94117,-2.79663 0,-1.19757 0.76706,-2.40628 3.89097,-6.13128 2.49163,-2.97105 2.19044,-2.89237 -2.42038,0.63231 -5.09927,3.89805 -8.75028,5.38209 -13.83956,5.62541 -2.36374,0.11302 -4.2977,0.054 -4.2977,-0.13123 0,-0.18518 0.69653,-0.92279 1.54785,-1.63913 0.85131,-0.71633 3.7094,-4.19488 6.3513,-7.7301 4.8251,-6.45664 7.17988,-8.64515 10.28077,-9.55487 4.90339,-1.43851 11.2167,2.3491 12.63774,7.58187 1.31927,4.85806 -2.96451,12.68135 -7.65756,13.98468 -1.01011,0.28053 -1.94686,0.48124 -2.08167,0.44603 -0.1348,-0.0352 -0.79657,-0.16439 -1.47059,-0.28706 z"
       transform="translate(16.874958,4.05862)"
       id="mun1"
       inkscape:connector-curvature="0"
       style="fill:#fef666" />
    <path
       d="m 460.44263,204.96122 c -1.60557,-0.44531 -3.67194,-2.12046 -5.17472,-4.19499 -1.78994,-2.47094 -3.05278,-5.8521 -5.17461,-13.85461 -0.92931,-3.5049 -1.80087,-6.73534 -1.9368,-7.17874 -0.68558,-2.23633 4.18957,-3.37368 10.15096,-2.36816 4.69055,0.79117 6.41516,2.36509 7.25657,6.62255 0.31787,1.60839 0.63822,3.14494 0.71189,3.41454 0.0737,0.26961 0.4196,-1.02021 0.76874,-2.86627 0.38817,-2.05241 1.06302,-3.8543 1.73697,-4.63781 l 1.10216,-1.28134 1.78772,1.20644 c 2.80854,1.89534 4.3985,5.61448 4.36891,10.2195 -0.0419,6.51715 -2.72538,11.59596 -7.25095,13.72323 -2.24016,1.053 -6.60624,1.67843 -8.34684,1.19566 z"
       transform="translate(16.874958,4.05862)"
       id="mun2"
       inkscape:connector-curvature="0"
       style="fill:#fef67a" />
  </g>
</svg>
