<?xml version="1.0" encoding="UTF-8"?>
<svg version="1.1" viewBox="0 0 128 128" xmlns="http://www.w3.org/2000/svg" xmlns:cc="http://creativecommons.org/ns#" xmlns:dc="http://purl.org/dc/elements/1.1/" xmlns:rdf="http://www.w3.org/1999/02/22-rdf-syntax-ns#" xmlns:xlink="http://www.w3.org/1999/xlink">
<defs>
<linearGradient id="a" x1="16.6" x2="20" y1="15.3" y2="24" gradientTransform="matrix(2.5 0 0 2.7869 2.351 -60.634)" gradientUnits="userSpaceOnUse"><stop stop-color="#fff" offset="0"/><stop stop-color="#fff" stop-opacity="0" offset="1"/></linearGradient>
<linearGradient id="b" x1="12.5" x2="12.2" y1="2.9" y2="47" gradientTransform="matrix(2.6 0 0 2.5 1.6531 -52.136)" gradientUnits="userSpaceOnUse"><stop stop-color="#fff" offset="0"/><stop stop-color="#fff" stop-opacity="0" offset="1"/></linearGradient>
<linearGradient id="c" x1="23" x2="23" y1="36" y2="33.3" gradientTransform="matrix(2.6175 0 0 2.643 1.1955 -47.751)" gradientUnits="userSpaceOnUse"><stop stop-color="#fff" offset="0"/><stop stop-color="#fff" stop-opacity="0" offset="1"/></linearGradient>
<radialGradient id="h" cx="7.5" cy="8.4" r="20" gradientTransform="matrix(0 4.6588 -7.9722 -1.9658e-7 131.36 -68.244)" gradientUnits="userSpaceOnUse"><stop stop-color="#555" offset="0"/><stop stop-color="#141414" offset="1"/></radialGradient>
<linearGradient id="d" x1="16.1" x2="16.1" y1="4" y2="44" gradientTransform="matrix(2.5899 0 0 2 1.8 -43.6)" gradientUnits="userSpaceOnUse"><stop stop-color="#323232" offset="0"/><stop offset="1"/></linearGradient>
<linearGradient id="f" x1="24" x2="24" y1="7.96" y2="43.865" gradientTransform="matrix(2.6445 0 0 2.6758 .53145 -64.57)" gradientUnits="userSpaceOnUse"><stop stop-color="#f0f0f0" offset="0"/><stop stop-color="#d7d7d8" offset=".085525"/><stop stop-color="#b2b2b3" offset=".92166"/><stop stop-color="#979798" offset="1"/></linearGradient>
<linearGradient id="g" x1="10" x2="10" y1="44.96" y2="2.8765" gradientTransform="matrix(2.532 0 0 2.4175 3.232 -53.049)" gradientUnits="userSpaceOnUse"><stop stop-color="#595959" offset="0"/><stop stop-color="#b3b3b3" offset="1"/></linearGradient>
</defs>
<g transform="translate(0,64)">
<rect x="4.5" y="-44.5" width="119" height="99" rx="3" ry="3" fill="url(#f)" fill-rule="evenodd" stroke="url(#g)" stroke-linecap="round" stroke-linejoin="round" stroke-width="1.0021"/>
<rect x="13.5" y="-34.5" width="101" height="79" rx="0" ry="0" color="#000000" fill="url(#h)" stroke="url(#d)" stroke-linecap="round" stroke-linejoin="round"/>
<rect x="12.501" y="-35.5" width="103" height="81" rx="0" ry="0" fill="none" opacity=".4" stroke="url(#c)" stroke-linecap="round" stroke-linejoin="round"/>
<rect x="5.5019" y="-43.5" width="117" height="97" rx="2" ry="2" fill="none" opacity=".8" stroke="url(#b)" stroke-linecap="round" stroke-linejoin="round"/>
<path d="m10.619-44c-3.1037 0-5.619 2.729-5.619 6.096v44.59c0.00805 0.37512 0.15876 0.72986 0.41807 0.9781 0.25933 0.24823 0.6026 0.36729 0.94655 0.32824l115.6-19.856c0.59462-0.10173 1.0352-0.65334 1.0436-1.3063v-24.734c0-3.3673-2.5153-6.0963-5.6191-6.0963h-106.76z" fill="url(#a)" fill-rule="evenodd" opacity=".2"/>
<rect x="14.5" y="-33.5" width="99" height="77" rx="0" ry="0" color="#000000" fill="none" opacity=".1" stroke="url(#a)" stroke-linecap="round" stroke-linejoin="round"/>
</g>
</svg>
