<?xml version="1.0" encoding="UTF-8" standalone="no"?>
<!-- Created with Inkscape (http://www.inkscape.org/) -->

<svg
   xmlns:dc="http://purl.org/dc/elements/1.1/"
   xmlns:cc="http://creativecommons.org/ns#"
   xmlns:rdf="http://www.w3.org/1999/02/22-rdf-syntax-ns#"
   xmlns:svg="http://www.w3.org/2000/svg"
   xmlns="http://www.w3.org/2000/svg"
   xmlns:sodipodi="http://sodipodi.sourceforge.net/DTD/sodipodi-0.dtd"
   xmlns:inkscape="http://www.inkscape.org/namespaces/inkscape"
   version="1.1"
   id="svg2"
   width="550.06647"
   height="549.89996"
   viewBox="0 0 550.06647 549.89996"
   sodipodi:docname="teams.svg"
   inkscape:version="0.92.5 (2060ec1f9f, 2020-04-08)">
  <metadata
     id="metadata8">
    <rdf:RDF>
      <cc:Work
         rdf:about="">
        <dc:format>image/svg+xml</dc:format>
        <dc:type
           rdf:resource="http://purl.org/dc/dcmitype/StillImage" />
        <dc:title></dc:title>
      </cc:Work>
    </rdf:RDF>
  </metadata>
  <defs
     id="defs6" />
  <sodipodi:namedview
     pagecolor="#ffffff"
     bordercolor="#666666"
     borderopacity="1"
     objecttolerance="10"
     gridtolerance="10"
     guidetolerance="10"
     inkscape:pageopacity="0"
     inkscape:pageshadow="2"
     inkscape:window-width="1313"
     inkscape:window-height="864"
     id="namedview4"
     showgrid="false"
     inkscape:zoom="0.42909091"
     inkscape:cx="92.708096"
     inkscape:cy="260.32388"
     inkscape:window-x="2281"
     inkscape:window-y="100"
     inkscape:window-maximized="0"
     inkscape:current-layer="svg2" />
  <path
     style="fill:#2aa198;fill-opacity:1"
     d="M 107.88051,548.98117 C 81.50661,545.90271 52.60234,531.21182 34.18683,511.52559 16.13932,492.23273 4.24438,466.91635 1.07229,441.04678 -0.35743,429.38699 -0.35743,120.65411 1.07229,108.99432 4.24604,83.111227 16.13818,57.809587 34.20997,38.490777 52.80093,18.616987 81.82417,4.1927174 109.53324,1.0558274 c 12.4566,-1.41018003 320.02347,-1.40668803 331.52623,0.004 27.70295,3.39691 56.38817,17.7520396 74.79704,37.4311896 18.07179,19.3188 29.96393,44.62044 33.13769,70.503543 1.42971,11.65979 1.42971,320.39267 0,332.05246 -3.17376,25.8831 -15.0659,51.18474 -33.13769,70.50354 -18.40887,19.67915 -47.09409,34.03428 -74.79704,37.43119 -9.98616,1.22449 -322.68825,1.22417 -333.17896,-3.4e-4 z M 321.03324,433.66704 v -27.35352 l 5.25,1.41913 c 7.17269,1.93884 25.43101,1.89175 34.75,-0.0896 15.97178,-3.39588 29.41866,-12.98667 35.12765,-25.05427 1.57893,-3.33751 2.87113,-6.79104 2.87156,-7.6745 6.7e-4,-1.36136 1.94502,-1.69281 12.75079,-2.1736 22.23724,-0.98942 35.76818,-6.02238 47.32942,-17.60462 4.78526,-4.79395 7.26663,-8.26754 9.01193,-12.61548 2.35877,-5.87625 2.40845,-6.62221 2.40855,-36.16821 l 10e-5,-30.16824 -2.5,-2.71067 c -4.80461,-5.20948 -6.5219,-5.45291 -38.46788,-5.45291 -16.24267,0 -29.47883,-0.3375 -29.4137,-0.75 0.0651,-0.4125 0.0651,-2.71544 0,-5.11765 -0.0993,-3.66123 -0.74634,-4.99557 -4.00077,-8.25 l -3.88236,-3.88235 h -35.61764 -35.61765 v -12.3295 -12.3295 l 6.21648,3.0795 c 5.91678,2.93104 6.79662,3.07822 18.25,3.05294 11.32128,-0.025 12.41824,-0.20808 18.53352,-3.09335 3.575,-1.68673 8.8625,-5.20398 11.75,-7.8161 3.09548,-2.80028 5.25,-4.15086 5.25,-3.29102 0,0.80208 1.59073,4.638 3.53496,8.52428 8.55285,17.09614 28.6187,27.40099 47.25093,24.26579 23.5809,-3.96789 40.86788,-25.76253 38.9166,-49.06428 -1.51891,-18.13843 -13.64475,-33.70144 -30.94635,-39.71834 -6.24973,-2.17345 -8.45036,-2.44089 -17.21106,-2.09168 -8.76658,0.34945 -10.88119,0.80391 -16.61431,3.57064 -3.61308,1.74363 -8.61472,4.97075 -11.11476,7.17137 l -4.54552,4.00113 -3.72129,-7.5295 c -6.74895,-13.65559 -19.04153,-22.88007 -33.92858,-25.46038 -9.97561,-1.72903 -19.30355,0.038 -30.87062,5.84795 -0.4125,0.2072 -0.75,-12.94436 -0.75,-29.22567 V 87.982447 l -2.25,0.53088 c -1.2375,0.29199 -15.975,2.96117 -32.75,5.93152 -30.23056,5.35293 -75.65848,13.460393 -145.95304,26.048053 -20.04917,3.59021 -36.85075,6.52765 -37.33684,6.52765 -1.04695,0 -0.62065,294.93726 0.42723,295.58489 0.67201,0.41532 19.99387,3.99297 44.86265,8.3068 37.12802,6.44036 164.6621,29.20943 165.5,29.54724 0.55,0.22175 2.4625,0.4387 4.25,0.48212 l 3.25,0.0789 z m -116.25,-91.38548 -5.75,-0.36082 v -54.07767 -54.07768 l -19,0.7292 -19,0.7292 v -11.02203 -11.02202 l 6.25,-0.59595 c 6.09732,-0.58139 88.52455,-5.56684 92,-5.56445 1.56817,0.001 1.75,1.23278 1.75,11.85447 v 11.85327 l -7.65088,0.64673 c -4.20798,0.35571 -10.67017,0.64674 -14.36043,0.64674 -3.69025,0 -8.79735,0.28617 -11.34912,0.63592 l -4.63957,0.63593 v 54.86407 54.86408 l -6.25,-0.18908 c -3.4375,-0.104 -8.8375,-0.35146 -12,-0.54991 z"
     id="path817"
     inkscape:connector-curvature="0" />
</svg>
