<?xml version="1.0" encoding="UTF-8"?>
<svg version="1.1" viewBox="0 0 128 128" xmlns="http://www.w3.org/2000/svg" xmlns:cc="http://creativecommons.org/ns#" xmlns:dc="http://purl.org/dc/elements/1.1/" xmlns:rdf="http://www.w3.org/1999/02/22-rdf-syntax-ns#" xmlns:xlink="http://www.w3.org/1999/xlink">
<defs>
<linearGradient id="b" x1="16.626" x2="20.055" y1="15.298" y2="24.628" gradientTransform="matrix(2.5687 0 0 2.7869 2.351 -60.634)" gradientUnits="userSpaceOnUse">
<stop stop-color="#fff" offset="0"/><stop stop-color="#fff" stop-opacity="0" offset="1"/>
</linearGradient>
<linearGradient id="k" x1="12.579" x2="12.213" y1="2.9165" y2="47.279" gradientTransform="matrix(2.5977 0 0 2.4848 1.6531 -52.136)" gradientUnits="userSpaceOnUse">
<stop stop-color="#fff" offset="0"/><stop stop-color="#fff" stop-opacity="0" offset="1"/>
</linearGradient>
<linearGradient id="j" x1="23.071" x2="23.071" y1="36.047" y2="33.296" gradientTransform="matrix(2.6175 0 0 2.643 1.1955 -47.751)" gradientUnits="userSpaceOnUse">
<stop stop-color="#fff" offset="0"/><stop stop-color="#fff" stop-opacity="0" offset="1"/>
</linearGradient>
<radialGradient id="e" cx="7.4957" cy="8.4498" r="20" gradientTransform="matrix(0 4.6588 -7.9722 -1.9658e-7 131.36 -68.244)" gradientUnits="userSpaceOnUse">
<stop stop-color="#505050" offset="0"/><stop stop-color="#141414" offset="1"/>
</radialGradient>
<linearGradient id="i" x1="16.143" x2="16.143" y1="4" y2="44" gradientTransform="matrix(2.5899 0 0 2.0258 1.8426 -43.619)" gradientUnits="userSpaceOnUse">
<stop stop-color="#323232" offset="0"/><stop offset="1"/>
</linearGradient>
<linearGradient id="h" x1="24" x2="24" y1="7.96" y2="43.865" gradientTransform="matrix(2.6445 0 0 2.6758 .53145 -64.57)" gradientUnits="userSpaceOnUse">
<stop stop-color="#f0f0f0" offset="0"/><stop stop-color="#d7d7d8" offset=".085525"/><stop stop-color="#b2b2b3" offset=".92166"/><stop stop-color="#979798" offset="1"/>
</linearGradient>
<linearGradient id="g" x1="10.014" x2="10.014" y1="44.96" y2="2.8765" gradientTransform="matrix(2.532 0 0 2.4175 3.232 -53.049)" gradientUnits="userSpaceOnUse">
<stop stop-color="#595959" offset="0"/><stop stop-color="#b3b3b3" offset="1"/>
</linearGradient>
<radialGradient id="d" cx="605.71" cy="486.65" r="117.14" gradientTransform="matrix(-.11245 0 0 .057647 81.771 24.864)" gradientUnits="userSpaceOnUse" xlink:href="#a"/>
<linearGradient id="a">
<stop offset="0"/><stop stop-opacity="0" offset="1"/>
</linearGradient>
<radialGradient id="c" cx="605.71" cy="486.65" r="117.14" gradientTransform="matrix(.11245 0 0 .057647 46.229 24.864)" gradientUnits="userSpaceOnUse" xlink:href="#a"/>
<linearGradient id="f" x1="302.86" x2="302.86" y1="366.65" y2="609.51" gradientTransform="matrix(.2071 0 0 .057647 -10.852 24.864)" gradientUnits="userSpaceOnUse">
<stop stop-opacity="0" offset="0"/><stop offset=".5"/><stop stop-opacity="0" offset="1"/>
</linearGradient>
</defs>
<g transform="translate(0,64)">
<rect x="14" y="46" width="100" height="14" fill="url(#f)" opacity=".40206"/>
<path d="m114 46v13.999c5.7911 0.0263 14-3.1365 14-7.0005s-6.4624-6.9987-14-6.9987z" fill="url(#c)" opacity=".40206"/>
<path d="m14 46v13.999c-5.7911 0.0263-14-3.1365-14-7.0005s6.4624-6.9987 14-6.9987z" fill="url(#d)" opacity=".40206"/>
<rect x="4.5011" y="-44.499" width="119" height="98.998" rx="3" ry="3" fill="url(#h)" fill-rule="evenodd" stroke="url(#g)" stroke-linecap="round" stroke-linejoin="round" stroke-width="1.0021"/>
<rect x="13.5" y="-34.5" width="101" height="79" rx="0" ry="0" color="#000000" fill="url(#e)" stroke="url(#i)" stroke-linecap="round" stroke-linejoin="round"/>
<rect x="12.501" y="-35.499" width="103" height="80.998" rx="0" ry="0" fill="none" opacity=".4" stroke="url(#j)" stroke-linecap="round" stroke-linejoin="round" stroke-width="1"/>
<rect x="5.5019" y="-43.498" width="117" height="96.996" rx="2" ry="2" fill="none" opacity=".8" stroke="url(#k)" stroke-linecap="round" stroke-linejoin="round" stroke-width="1"/>
<path d="m10.619-44c-3.1037 0-5.619 2.729-5.619 6.096v44.59c0.00805 0.37512 0.15876 0.72986 0.41807 0.9781 0.25933 0.24823 0.6026 0.36729 0.94655 0.32824l115.6-19.856c0.59462-0.10173 1.0352-0.65334 1.0436-1.3063v-24.734c0-3.3673-2.5153-6.0963-5.6191-6.0963h-106.76z" fill="url(#b)" fill-rule="evenodd" opacity=".2"/>
<rect x="14.5" y="-33.5" width="99" height="77" rx="0" ry="0" color="#000000" fill="none" opacity=".1" stroke="url(#b)" stroke-linecap="round" stroke-linejoin="round"/>
</g>
</svg>

