<?xml version="1.0" encoding="UTF-8" standalone="no"?>
<svg style="fill:#2aa198" height="36" width="40" viewBox="0 0 40 36" xmlns="http://www.w3.org/2000/svg" xmlns:svg="http://www.w3.org/2000/svg">
  <path d="M 4 0 C 1.784 0 0 1.784 0 4 L 0 32 C 0 34.216 1.784 36 4 36 L 36 36 C 38.216 36 40 34.216 40 32 L 40 4 C 40 1.784 38.216 0 36 0 L 4 0 z M 4 4 L 36 4 L 36 32 L 4 32 L 4 4 z " />
  <path d="M 8.11,10.59 V 8.15 L 18.44,12.21 v 2.30 L 8.11,18.57 v -2.43 l 7.76,-2.76 z" />
  <path d="m 31.34,22.50 v 1.85 H 19.30 v -1.85 z" />
</svg>
